/* XPM */
static char *result[] = {
/* columns rows colors chars-per-pixel */
"64 64 183 2 ",
"   c #040301",
".  c #090604",
"X  c #0A0906",
"o  c #0F0C0A",
"O  c #120E0C",
"+  c #16110E",
"@  c #19130F",
"#  c #161412",
"$  c #1B1511",
"%  c #161817",
"&  c #1C1814",
"*  c #171918",
"=  c #1B1C1C",
"-  c #211B17",
";  c #251C19",
":  c #2A1E1B",
">  c #23241C",
",  c #2A221D",
"<  c #32231F",
"1  c #262522",
"2  c #2A2624",
"3  c #2A2926",
"4  c #232729",
"5  c #2D2B29",
"6  c #332623",
"7  c #382725",
"8  c #372925",
"9  c #3B2A26",
"0  c #342C2A",
"q  c #3C2D2A",
"w  c #3D322C",
"e  c #393227",
"r  c #3B3232",
"t  c #31363A",
"y  c #3D3B3D",
"u  c #422E2A",
"i  c #44312D",
"p  c #4A332E",
"a  c #443532",
"s  c #4B3632",
"d  c #453B35",
"f  c #4C3A35",
"g  c #453B38",
"h  c #493D3A",
"j  c #523A35",
"k  c #553E39",
"l  c #583F3A",
"z  c #4D4436",
"x  c #4D413E",
"c  c #474F3D",
"v  c #43423F",
"b  c #504437",
"n  c #56443D",
"m  c #5B423D",
"M  c #47503E",
"N  c #343E44",
"B  c #393E41",
"V  c #3A454B",
"C  c #3F4245",
"Z  c #40474E",
"A  c #41494F",
"S  c #484242",
"D  c #564741",
"F  c #5E4641",
"G  c #534B42",
"H  c #5B4B44",
"J  c #5D4F49",
"K  c #4B5040",
"L  c #57584A",
"P  c #444C52",
"I  c #4C5157",
"U  c #45545D",
"Y  c #4A565F",
"T  c #5D5D5C",
"R  c #585A5B",
"E  c #624641",
"W  c #634A45",
"Q  c #674D48",
"!  c #6B4E48",
"~  c #6A4E47",
"^  c #714F4A",
"/  c #62534D",
"(  c #6B514A",
")  c #71534D",
"_  c #655751",
"`  c #6C5E58",
"'  c #755952",
"]  c #745F58",
"[  c #785B54",
"{  c #56614B",
"}  c #5C634D",
"|  c #636C55",
" . c #64635F",
".. c #6E615B",
"X. c #7C6057",
"o. c #7E6158",
"O. c #677159",
"+. c #6C7B5F",
"@. c #69725B",
"#. c #495760",
"$. c #4C5A63",
"%. c #505D66",
"&. c #515F68",
"*. c #55616A",
"=. c #59656E",
"-. c #686764",
";. c #6A6A67",
":. c #62686A",
">. c #6D6D6B",
",. c #656561",
"<. c #7B6C66",
"1. c #6E7C60",
"2. c #707F62",
"3. c #71716F",
"4. c #666D70",
"5. c #797977",
"6. c #727270",
"7. c #8F5856",
"8. c #875F59",
"9. c #935C59",
"0. c #87665D",
"q. c #8F6760",
"w. c #8B6A61",
"e. c #8B7A6D",
"r. c #957269",
"t. c #9C766C",
"y. c #9D796E",
"u. c #857B77",
"i. c #AE716C",
"p. c #B1746E",
"a. c #A27C71",
"s. c #718164",
"d. c #88837F",
"f. c #81817E",
"g. c #97877D",
"h. c #A38174",
"j. c #A98377",
"k. c #AE877A",
"l. c #A28E7E",
"z. c #AF8A7D",
"x. c #A3877D",
"c. c #B28A7E",
"v. c #A2907F",
"b. c #898986",
"n. c #998F87",
"m. c #94908C",
"M. c #959694",
"N. c #A58F80",
"B. c #BB8F83",
"V. c #B68D80",
"C. c #AB9387",
"Z. c #A89787",
"A. c #BD9285",
"S. c #A59B91",
"D. c #A69D98",
"F. c #BB9D92",
"G. c #BAAA9E",
"H. c #B5A497",
"J. c #B4AAA0",
"K. c #C19689",
"L. c #C99589",
"P. c #C3998C",
"I. c #CB9E8F",
"U. c #C09486",
"Y. c #CD9F90",
"T. c #CAAF9C",
"R. c #CDA092",
"E. c #D3A495",
"W. c #D7A798",
"Q. c #D5A999",
"!. c #DAAB9B",
"~. c #D2BEAB",
"^. c #D4B1A5",
"/. c #E4B4A4",
"(. c #E7B8A7",
"). c #E8B8A7",
"_. c #EABAA9",
"`. c #D3C0AD",
"'. c #D9C7B5",
"]. c #DECDBC",
"[. c #E0CEBD",
"{. c #E3D3C2",
"}. c None",
/* pixels */
"}.}.}.}.}.}.}.}.}.}.}.}.}.}.}.}.}.}.}.}.}.}.}.}.}.}.}.}.}.}.}.}.}.}.}.}.}.}.}.}.}.}.}.}.}.}.}.}.}.}.}.}.}.}.}.}.}.}.}.}.}.}.}.}.",
"}.}.}.}.}.}.}.}.}.}.}.}.}.}.}.}.}.}.}.}.}.}.}.}.}.}.}.}.}.}.}.}.}.}.}.}.}.}.}.}.}.}.}.}.}.}.}.}.}.}.}.}.}.}.}.}.}.}.}.}.}.}.}.}.",
"}.}.}.}.}.}.}.}.}.}.}.}.}.}.}.}.}.}.}.}.}.}.}.}.}.}.}.}.}.}.}.}.}.}.}.}.}.}.}.}.}.}.}.}.}.}.}.}.}.}.}.}.}.}.}.}.}.}.}.}.}.}.}.}.",
"}.}.}.}.}.}.}.}.}.}.}.}.}.}.}.}.}.}.}.}.}.}.}.}.}.}.}.}.}.}.}.}.}.}.}.}.}.}.}.}.}.}.}.}.}.}.}.}.}.}.}.}.}.}.}.}.}.}.}.}.}.}.}.}.",
"}.}.}.}.}.}.}.}.}.}.}.}.}.}.}.}.}.}.}.}.}.}.}.}.}.}.}.}.}.}.}.}.}.}.}.}.}.}.}.}.}.}.}.}.}.}.}.}.}.}.}.}.}.}.}.}.}.}.}.}.}.}.}.}.",
"}.}.}.}.}.}.}.}.}.}.}.}.}.}.}.}.}.}.}.}.}.}.}.}.}.}.}.}.}.}.}.}.}.}.}.}.}.}.}.}.}.}.}.}.}.}.}.}.}.}.}.}.}.}.}.}.}.}.}.}.}.}.}.}.",
"}.}.}.}.}.}.}.}.}.}.}.}.}.}.}.}.}.}.}.}.}.}.}.}.}.}.X X X X X X }.}.X X }.}.}.}.}.}.}.}.}.}.}.}.}.}.}.}.}.}.}.}.}.}.}.}.}.}.}.}.",
"}.}.}.}.}.}.}.}.}.}.}.}.}.}.}.}.}.}.}.}.}.}.}.}.}.}.@ $ $ $ $ @ }.}.@ $ }.}.}.}.}.}.}.}.}.}.}.}.}.}.}.}.}.}.}.}.}.}.}.}.}.}.}.}.",
"}.}.}.}.}.}.}.}.}.}.}.}.}.}.}.}.}.}.X X X X X X . $ < 9 9 9 9 < @ @ < < $ X }.}.}.}.}.}.}.}.}.}.}.}.}.}.}.}.}.}.}.}.}.}.}.}.}.}.",
"}.}.}.}.}.}.}.}.}.}.}.}.}.}.}.}.}.}.$ $ $ $ @ @ $ : u k l j j u : ; i u $ . }.}.}.}.}.}.}.}.}.}.}.}.}.}.}.}.}.}.}.}.}.}.}.}.}.}.",
"}.}.}.}.}.}.}.}.}.}.}.}.}.}.}.}.X $ 6 9 9 9 9 9 u s l E E m E k u i l s - . }.}.}.}.}.}.}.}.}.}.}.}.}.}.}.}.}.}.}.}.}.}.}.}.}.}.",
"}.}.}.}.}.}.}.}.}.}.}.}.}.}.}.}.. @ < u p j j l l m E Q W W W E l l E k 6 $ }.}.}.}.}.}.}.}.}.}.}.}.}.}.}.}.}.}.}.}.}.}.}.}.}.}.",
"}.}.}.}.}.}.}.}.}.}.}.}.}.}.}.}.}.}.$ : i k F F E E W W W W W W E E W W k w - . }.}.}.}.}.}.}.}.}.}.}.}.}.}.}.}.}.}.}.}.}.}.}.}.",
"}.}.}.}.}.}.}.}.}.}.}.}.}.}.}.}.}.}.$ : s F E Q W W W W W W W W W W E Q Q f - . }.}.}.}.}.}.}.}.}.}.}.}.}.}.}.}.}.}.}.}.}.}.}.}.",
"}.}.}.}.}.}.}.}.}.}.}.}.}.}.}.}.X $ 6 a k W W W W W W W W W W E W W W W Q j - X }.}.}.}.}.}.}.}.}.}.}.}.}.}.}.}.}.}.}.}.}.}.}.}.",
"}.}.}.}.}.}.}.}.}.}.}.}.}.}.}.}.X $ i F E Q W W W W W W E l E E W W W W W f &   }.}.}.}.}.}.}.}.}.}.}.}.}.}.}.}.}.}.}.}.}.}.}.}.",
"}.}.}.}.}.}.}.}.}.}.}.}.}.}.}.}.. $ u m E W W W W W W F j s s l F W Q Q W s #   }.}.}.}.}.}.}.}.}.}.}.}.}.}.}.}.}.}.}.}.}.}.}.}.",
"}.}.}.}.}.}.}.}.}.}.}.}.}.}.}.}.@ : i l E E W W W W W W ! W j j F E F F W j : O }.}.}.}.}.}.}.}.}.}.}.}.}.}.}.}.}.}.}.}.}.}.}.}.",
"}.}.}.}.}.}.}.}.}.}.}.}.}.}.X $ < u p j k m W W W F F ' a.t.E s F F j j F F s 6 O   }.}.}.}.}.}.}.}.}.}.}.}.}.}.}.}.}.}.}.}.}.}.",
"}.}.}.}.}.}.}.}.}.}.}.}.}.}.X $ 6 u p s j m W W E ! ' r.P.U.0.E E E ! Q W F a 6 o   }.}.}.}.}.}.}.}.}.}.}.}.}.}.}.}.}.}.}.}.}.}.",
"}.}.}.}.}.}.}.}.}.}.}.}.}.}.}.}.@ ; 9 j m W W W E ' a.K.E.Y.U.y.) ' y.a.[ f ; o }.}.}.}.}.}.}.}.}.}.}.}.}.}.}.}.}.}.}.}.}.}.}.}.",
"}.}.}.}.}.}.}.}.}.}.}.}.}.}.}.}.. $ 9 k F W W Q ' r.K.I.k.V.Y.P.r.w.y.y.w.W < o }.}.}.}.}.}.}.}.}.}.}.}.}.}.}.}.}.}.}.}.}.}.}.}.",
"}.}.}.}.}.}.}.}.}.}.}.}.}.}.}.}.. $ u l E W F ' a.K.E.k.F H A.!.I.r.D D y.y.F < o   }.}.}.}.}.}.}.}.}.}.}.}.}.}.}.}.}.}.}.}.}.}.",
"}.}.}.}.}.}.}.}.}.}.}.}.}.}.}.}.@ : a m F W ) q.U.W.W.a.6 q N._./.h.8 9 a.V.Q 6 o   }.}.}.}.}.}.}.}.}.}.}.}.}.}.}.}.}.}.}.}.}.}.",
"}.}.}.}.}.}.}.}.}.}.}.}.}.}.X $ < i j l F ^ 9.p.L.W.W.a.i a V._.).k.a a j.j.a o }.}.}.}.}.}.}.}.}.}.}.}.}.}.}.}.}.}.}.}.}.}.}.}.",
"}.}.}.}.}.}.}.}.}.}.}.}.}.}.X @ < u j l F ^ 7.i.L.W.W.V.) ' A._._.P.' ' B.a.6   }.}.}.}.}.}.}.}.}.}.}.}.}.}.}.}.}.}.}.}.}.}.}.}.",
"}.}.}.}.}.}.}.}.}.}.}.}.}.}.}.}.$ : s l l l E 8.B.W.E.Y.B.K.!.(.(.!.P.A.E.a.2   }.}.}.}.}.}.}.}.}.}.}.}.}.}.}.}.}.}.}.}.}.}.}.}.",
"}.}.}.}.}.}.}.}.}.}.}.}.}.}.}.}.. $ 6 s j k k Q t.B.Y.!./.(.(././.(.(.!.c.[ ,   }.}.}.}.}.}.}.}.}.}.}.}.}.}.}.}.}.}.}.}.}.}.}.}.",
"}.}.}.}.}.}.}.}.}.}.}.}.}.}.}.}.}.}.$ : a l k F ! q.A.!./.).(.(.(././.c.F : }.}.}.}.}.}.}.}.}.}.}.}.}.}.}.}.}.}.}.}.}.}.}.}.}.}.",
"}.}.}.}.}.}.}.}.}.}.}.}.}.}.}.}.}.}.. $ 7 i u i s Q y.K.W./.!././.E.c.o.,   }.}.}.}.}.}.}.}.}.}.}.}.}.}.}.}.}.}.}.}.}.}.}.}.}.}.",
"}.}.}.}.}.}.}.}.}.}.}.}.}.}.}.}.}.}.}.}.$ $ $ : a m ! w.A.W.W.!.Q.c.H 6 }.}.}.}.}.}.. . . . . . . . . . }.}.}.}.}.}.}.}.}.}.}.}.",
"}.}.}.}.}.}.}.}.}.}.}.}.}.}.}.}.}.}.}.}.. o + , a j s ! V.Q.Q.T.Q.h.a O }.}.}.}.}.}.1 3 3 3 1 1 2 3 5 3 }.}.}.}.}.}.}.}.}.}.}.}.",
"}.}.}.}.}.}.}.}.}.}.}.}.}.}.}.}.}.}.}.}.. + 2 d h s u J z.T.T.T.T.v.J 2 # . . .   2 R 3.-. .,. .,.;.3.` 2 . }.}.}.}.}.}.}.}.}.}.",
"}.}.}.}.}.}.}.}.}.}.}.}.}.}.}.}.}.}.}.}.> 5 d S h h r D e.v.n.N.v.e.J w - $ # # $ y u.D.m.b.b.f.>.;.3.T 3 . }.}.}.}.}.}.}.}.}.}.",
"}.}.}.}.}.}.}.}.}.}.}.}.}.}.}.}.}.}.X > M L G x S h h b J _ J H H n d q 6 6 q r q J C.^.}.}.M.5.v 1 4 5 }.}.}.}.}.}.}.}.}.}.}.}.",
"}.}.}.}.}.}.}.}.}.}.}.}.}.}.}.}.}.}.X > { O.G g h D S x h d q 8 6 6 9 9 q u d h h ] Y.!.}.}.;.T 3   . . }.}.}.}.}.}.}.}.}.}.}.}.",
"}.}.}.}.}.}.}.}.}.}.}.}.}.}.}.}.}.}.X > { O.v i h S S k h g d a 0 6 9 9 0 9 u a d ] P.P.f o > 3 }.}.}.}.}.}.}.}.}.}.}.}.}.}.}.}.",
"}.}.}.}.}.}.}.}.}.}.}.}.}.}.}.}.}.}.X > { O.M f d s h S / ` ..` _ D a 6 6 2 < 0 x <.F.x.w .   . }.}.}.}.}.}.}.}.}.}.}.}.}.}.}.}.",
"}.}.}.}.}.}.}.}.}.}.}.}.}.}.}.}.}.}.. > L 1.O.L g q 9 F e.Z.H.G.J.n.H < & O O 2 T d.M.u.0 . }.}.}.}.}.}.}.}.}.}.}.}.}.}.}.}.}.}.",
"}.}.}.}.}.}.}.}.}.}.}.}.}.}.}.}.}.}.X > { s.2.| z 8 6 H Z.~.'.].{.F._ : O . . 1 L ;.3.R 3 . }.}.}.}.}.}.}.}.}.}.}.}.}.}.}.}.}.}.",
"}.}.}.}.}.}.}.}.}.}.}.}.}.}.}.}.}.}.. > { 2.+.} z 6 6 / H.'.~.~.{.G.Q : O X }.}.1 3 3 2 }.}.}.}.}.}.}.}.}.}.}.}.}.}.}.}.}.}.}.}.",
"}.}.}.}.}.}.}.}.}.}.}.}.}.}.}.}.}.}.. > { s.+.} d 6 6 G n.J.S.S.J.n.H : O X }.}.. . . . }.}.}.}.}.}.}.}.}.}.}.}.}.}.}.}.}.}.}.}.",
"}.}.}.}.}.}.}.}.}.}.}.}.}.}.}.}.}.}.. > { s.+.} d 8 7 v T 4.:.:.>.%.g < O o }.}.}.}.}.}.}.}.}.}.}.}.}.}.}.}.}.}.}.}.}.}.}.}.}.}.",
"}.}.}.}.}.}.}.}.}.}.}.}.}.}.}.}.}.}.. > M { L K g r w y P U U U #.P C 5 $ o }.}.}.}.}.}.}.}.}.}.}.}.}.}.}.}.}.}.}.}.}.}.}.}.}.}.",
"}.}.}.}.}.}.}.}.}.}.}.}.}.}.}.}.}.}.}.}.> > > 3 N V V P Y &.&.&.%.%.%.C - X }.}.}.}.}.}.}.}.}.}.}.}.}.}.}.}.}.}.}.}.}.}.}.}.}.}.",
"}.}.}.}.}.}.}.}.}.}.}.}.}.}.}.}.}.}.}.}.. .   % V #.U $.*.*.*.*.=.&.=.P = X }.}.}.}.}.}.}.}.}.}.}.}.}.}.}.}.}.}.}.}.}.}.}.}.}.}.",
"}.}.}.}.}.}.}.}.}.}.}.}.}.}.}.}.}.}.}.}.}.}.. * V V %.*.*.*.$.$.&.:.=.P = . }.}.}.}.}.}.}.}.}.}.}.}.}.}.}.}.}.}.}.}.}.}.}.}.}.}.",
"}.}.}.}.}.}.}.}.}.}.}.}.}.}.}.}.}.}.}.}.}.}.X * C U *.*.*.Y V V $.&.=.P 1 . }.}.}.}.}.}.}.}.}.}.}.}.}.}.}.}.}.}.}.}.}.}.}.}.}.}.",
"}.}.}.}.}.}.}.}.}.}.}.}.}.}.}.}.}.}.}.}.}.}.X * C #.*.*.$.V 4 4 V $.=.P = . }.}.}.}.}.}.}.}.}.}.}.}.}.}.}.}.}.}.}.}.}.}.}.}.}.}.",
"}.}.}.}.}.}.}.}.}.}.}.}.}.}.}.}.}.}.}.}.}.}.X * N U *.*.#.t % % N #.&.V > X }.}.}.}.}.}.}.}.}.}.}.}.}.}.}.}.}.}.}.}.}.}.}.}.}.}.",
"}.}.}.}.}.}.}.}.}.}.}.}.}.}.}.}.}.}.}.}.}.}.X * V U *.*.Y V % % N U #.V = . }.}.}.}.}.}.}.}.}.}.}.}.}.}.}.}.}.}.}.}.}.}.}.}.}.}.",
"}.}.}.}.}.}.}.}.}.}.}.}.}.}.}.}.}.}.}.}.}.}.X * t P I I A t & % t P Z t * . }.}.}.}.}.}.}.}.}.}.}.}.}.}.}.}.}.}.}.}.}.}.}.}.}.}.",
"}.}.}.}.}.}.}.}.}.}.}.}.}.}.}.}.}.}.}.}.}.}.X + 1 r r r r 3 + + 2 r r 2 + . }.}.}.}.}.}.}.}.}.}.}.}.}.}.}.}.}.}.}.}.}.}.}.}.}.}.",
"}.}.}.}.}.}.}.}.}.}.}.}.}.}.}.}.}.}.}.}.}.}.X + < q e i u < + + : 9 9 6 > & }.}.}.}.}.}.}.}.}.}.}.}.}.}.}.}.}.}.}.}.}.}.}.}.}.}.",
"}.}.}.}.}.}.}.}.}.}.}.}.}.}.}.}.}.}.}.}.}.}.X & w b b z b a & O , q f z z e & X }.}.}.}.}.}.}.}.}.}.}.}.}.}.}.}.}.}.}.}.}.}.}.}.",
"}.}.}.}.}.}.}.}.}.}.}.}.}.}.}.}.}.}.}.}.}.}.X & e z z z z e & O ; 8 d z z w $ X }.}.}.}.}.}.}.}.}.}.}.}.}.}.}.}.}.}.}.}.}.}.}.}.",
"}.}.}.}.}.}.}.}.}.}.}.}.}.}.}.}.}.}.}.}.}.}.X + - , > , , - O o @ $ : , , > O X }.}.}.}.}.}.}.}.}.}.}.}.}.}.}.}.}.}.}.}.}.}.}.}.",
"}.}.}.}.}.}.}.}.}.}.}.}.}.}.}.}.}.}.}.}.}.}.}.}.}.}.}.}.}.}.}.}.}.}.}.}.}.}.}.}.}.}.}.}.}.}.}.}.}.}.}.}.}.}.}.}.}.}.}.}.}.}.}.}.",
"}.}.}.}.}.}.}.}.}.}.}.}.}.}.}.}.}.}.}.}.}.}.}.}.}.}.}.}.}.}.}.}.}.}.}.}.}.}.}.}.}.}.}.}.}.}.}.}.}.}.}.}.}.}.}.}.}.}.}.}.}.}.}.}.",
"}.}.}.}.}.}.}.}.}.}.}.}.}.}.}.}.}.}.}.}.}.}.}.}.}.}.}.}.}.}.}.}.}.}.}.}.}.}.}.}.}.}.}.}.}.}.}.}.}.}.}.}.}.}.}.}.}.}.}.}.}.}.}.}.",
"}.}.}.}.}.}.}.}.}.}.}.}.}.}.}.}.}.}.}.}.}.}.}.}.}.}.}.}.}.}.}.}.}.}.}.}.}.}.}.}.}.}.}.}.}.}.}.}.}.}.}.}.}.}.}.}.}.}.}.}.}.}.}.}.",
"}.}.}.}.}.}.}.}.}.}.}.}.}.}.}.}.}.}.}.}.}.}.}.}.}.}.}.}.}.}.}.}.}.}.}.}.}.}.}.}.}.}.}.}.}.}.}.}.}.}.}.}.}.}.}.}.}.}.}.}.}.}.}.}.",
"}.}.}.}.}.}.}.}.}.}.}.}.}.}.}.}.}.}.}.}.}.}.}.}.}.}.}.}.}.}.}.}.}.}.}.}.}.}.}.}.}.}.}.}.}.}.}.}.}.}.}.}.}.}.}.}.}.}.}.}.}.}.}.}.",
"}.}.}.}.}.}.}.}.}.}.}.}.}.}.}.}.}.}.}.}.}.}.}.}.}.}.}.}.}.}.}.}.}.}.}.}.}.}.}.}.}.}.}.}.}.}.}.}.}.}.}.}.}.}.}.}.}.}.}.}.}.}.}.}."
};
