/* XPM */
static char *result[] = {
/* columns rows colors chars-per-pixel */
"64 64 174 2 ",
"   c #060603",
".  c #080704",
"X  c #0A0805",
"o  c #0B0908",
"O  c #140F0C",
"+  c #15110E",
"@  c #19130F",
"#  c #161514",
"$  c #1B1511",
"%  c #171817",
"&  c #1D1914",
"*  c #161819",
"=  c #1A1B1B",
"-  c #211A16",
";  c #251D19",
":  c #2A1E1B",
">  c #23251C",
",  c #2C211D",
"<  c #32231F",
"1  c #2E2523",
"2  c #2E2B25",
"3  c #222729",
"4  c #262928",
"5  c #322521",
"6  c #352926",
"7  c #3B2A25",
"8  c #3C2D29",
"9  c #3C322B",
"0  c #383126",
"q  c #2B3337",
"w  c #3C3332",
"e  c #32363A",
"r  c #422E2A",
"t  c #402C27",
"y  c #44322D",
"u  c #49322D",
"i  c #443C2F",
"p  c #443532",
"a  c #4C3632",
"s  c #453D36",
"d  c #4C3A35",
"f  c #463C38",
"g  c #493E3B",
"h  c #533A35",
"j  c #553E39",
"k  c #583F3A",
"l  c #4D4537",
"z  c #46433B",
"x  c #4C433A",
"c  c #53433A",
"v  c #5C433E",
"b  c #62403C",
"n  c #343E45",
"m  c #413E40",
"M  c #3B454C",
"N  c #3D484E",
"B  c #4E4740",
"V  c #4F4841",
"C  c #40474E",
"Z  c #43494D",
"A  c #404246",
"S  c #5E4641",
"D  c #534D44",
"F  c #5B4A44",
"G  c #5F4F48",
"H  c #525644",
"J  c #575249",
"K  c #5A564B",
"L  c #5A5D4B",
"P  c #565947",
"I  c #444C52",
"U  c #44535C",
"Y  c #4C555C",
"T  c #50575D",
"R  c #614641",
"E  c #6A4743",
"W  c #634A45",
"Q  c #6A4E47",
"!  c #674D48",
"~  c #6A4E49",
"^  c #714E4A",
"/  c #65534D",
"(  c #73554E",
")  c #635752",
"_  c #695B54",
"`  c #6C5E58",
"'  c #765952",
"]  c #7A5C55",
"[  c #56624C",
"{  c #5D604E",
"}  c #5E6853",
"|  c #646D56",
" . c #6E615B",
".. c #656F58",
"X. c #74635C",
"o. c #7D615A",
"O. c #6B745E",
"+. c #495760",
"@. c #4C5A63",
"#. c #505C65",
"$. c #5D5F61",
"%. c #5A6163",
"&. c #55616A",
"*. c #58646D",
"=. c #62686A",
"-. c #6F7763",
";. c #747C67",
":. c #757D69",
">. c #666D70",
",. c #8D5654",
"<. c #875F59",
"1. c #845B54",
"2. c #925B58",
"3. c #84665D",
"4. c #88635B",
"5. c #886A5F",
"6. c #8D6C62",
"7. c #926C64",
"8. c #8F7066",
"9. c #917167",
"0. c #95746A",
"q. c #9B766C",
"w. c #97796F",
"e. c #9A786C",
"r. c #9F7F73",
"t. c #A8766E",
"y. c #B0736E",
"u. c #A27D72",
"i. c #B37570",
"p. c #9E8779",
"a. c #9F8D7D",
"s. c #A48175",
"d. c #A18F7F",
"f. c #AE897C",
"g. c #B28B7E",
"h. c #9C938B",
"j. c #B78D81",
"k. c #A69486",
"l. c #A89687",
"z. c #A99A8C",
"x. c #B79184",
"c. c #BC9184",
"v. c #BF9689",
"b. c #A79C90",
"n. c #B2A295",
"m. c #B9A99E",
"M. c #B5A89C",
"N. c #B8ABA0",
"B. c #C19487",
"V. c #C29789",
"C. c #CC978B",
"Z. c #C4998B",
"A. c #CA9D8E",
"S. c #CCA193",
"D. c #C6AB98",
"F. c #C8AD99",
"G. c #D1A495",
"H. c #DBAC9D",
"J. c #D2A898",
"K. c #C4B19C",
"L. c #C7B4A0",
"P. c #C9B7A4",
"I. c #CEBBA9",
"U. c #D1BEAC",
"Y. c #E4B5A5",
"T. c #E8B7A7",
"R. c #E7B8A8",
"E. c #E8B8A8",
"W. c #D6C4B3",
"Q. c #D8C7B7",
"!. c #DCCBBC",
"~. c #DFCFC0",
"^. c #E0D0C1",
"/. c None",
/* pixels */
"/./././././././././././././././././././././././././././././././././././././././././././././././././././././././././././././././.",
"/./././././././././././././././././././././././././././././././././././././././././././././././././././././././././././././././.",
"/./././././././././././././././././././././././././././././././././././././././././././././././././././././././././././././././.",
"/./././././././././././././././././././././././././././././././././././././././././././././././././././././././././././././././.",
"/./././././././././././././././././././././././././././././././././././././././././././././././././././././././././././././././.",
"/./././././././././././././././././././././././././././././././././././././././././././././././././././././././././././././././.",
"/./././././././././././././././././././././././././././.X X X X /./././.X X /./././././././././././././././././././././././././.",
"/./././././././././././././././././././././././././././.$ $ $ @ /./././.$ @ /./././././././././././././././././././././././././.",
"/./././././././././././././././././././././.X X X . . @ < 7 7 < @ . . @ < < @ . /./././././././././././././././././././././././.",
"/./././././././././././././././././././././.$ $ @ @ @ : y j j y : @ @ : u y : @ /./././././././././././././././././././././././.",
"/./././././././././././././././././././.X $ < 7 7 7 7 y j b R j r 7 7 r j k y , + X /./././././././././././././././././././././.",
"/./././././././././././././././././././.X $ < r a h h j W W W R j h h j R R k y , $ /./././././././././././././././././././././.",
"/./././././././././././././././././././././.+ : h b S W W W W W b R S W W W W v j 9 & . /./././././././././././././././././././.",
"/./././././././././././././././././././././.$ 1 j W W W W W W W W W W W W W W W ! j : + /./././././././././././././././././././.",
"/./././././././././././././././././././.X - y c S W W W W W W W W W W W W W W W W v y < @   /./././././././././././././././././.",
"/./././././././././././././././././././.. - d ~ W W W W W v v b W W v S R W W W W S h r : @ /./././././././././././././././././.",
"/./././././././././././././././././././.. - d ! W W W v h a a j R R h h v W W W W S h u r < $ X /./././././././././././././././.",
"/./././././././././././././././././././.@ , d R W W W W Q E h h v W Q Q W W W W W R k a r < $ o /./././././././././././././././.",
"/./././././././././././././././././.X $ < r a j S W S ' u.q.b u v ' u.q.' S W W W W R d : @ /./././././././././././././././././.",
"/./././././././././././././././././.X $ < t u h v ~ ' 0.Z.c.5.W R o.c.Z.q.' W W W W W d -   /./././././././././././././././././.",
"/./././././././././././././././././././.$ : t a v ' u.V.G.J.c.e.( ] x.G.Z.s.' S R W ! d &   /./././././././././././././././././.",
"/./././././././././././././././././././.. @ t j v 3.c.A.f.f.S.Z.9.7.B.S.g.w.5.' W S W j 5 & /./././././././././././././././././.",
"/./././././././././././././././././././.. $ u R b o.c.g.v W x.H.B.C.H.c.W v q.u.~ h S S c p - X /./././././././././././././././.",
"/./././././././././././././././././././.$ 1 j ~ ^ 6.B.u.6 9 f.Y.H.I.Y.f.8 7 u.c.1.b S S j r - X /./././././././././././././././.",
"/./././././././././././././././././.X $ 6 d S ^ 2.i.C.u.y y j.R.T.Y.E.g.p y u.C.y.,.E a , - /./././././././././././././././././.",
"/./././././././././././././././././.X $ 7 a v Q 2.y.C.j.' ' v.R.T.T.R.B.' ' g.C.y.,.E r $ . /./././././././././././././././././.",
"/./././././././././././././././././././.$ : a R E <.B.S.Z.Z.H.Y.Y.T.Y.H.Z.B.G.c.<.E k r $ . /./././././././././././././././././.",
"/./././././././././././././././././././.  $ 6 y a ~ q.V.H.E.Y.Y.Y.Y.Y.T.E.H.V.q.~ h p 6 $ X /./././././././././././././././././.",
"/./././././././././././././././././././././.$ : u S ~ 6.Z.Y.Y.Y.Y.Y.Y.Y.Y.Z.7.Q v p : $ /./././././././././././././././././././.",
"/./././././././././././././././././././././.. $ 6 u a W 6.g.J.H.Y.H.Y.J.g.5.W a y 6 $ . /./././././././././././././././././././.",
"/./././././././././././././././././././././././.$ : p a 8 W g.H.H.J.H.g.W r a u , $ /./././././././././././././././././././././.",
"/./././././././././././././././././././././././.. & d d - 8 r.J.J.J.J.u.9 - s s & . /./././././././././././././././././././././.",
"/./././././././././././././././././././././././.  > H P 9 g p.F.D.D.F.p.x 8 P H > . /./././././././././././././././././././././.",
"/./././././././././././././././././././././././.  > [ ..z G k.P.P.K.F.a.G z | [ > . /./././././././././././././././././././././.",
"/./././././././././././././././././././././././.. > [ ..c _ n.Q.W.U.L.d./ V ..[ > . /./././././././././././././././././././././.",
"/./././././././././././././././././././././././.O 2 } O.J  .m.^.~.Q.U.l._ J O.} 6 O /./././././././././././././././././././././.",
"/./././././././././././././././././././././.o O ; z -.:.J  .m.~.^.!.Q.n.` J :.-.s - O X /./././././././././././././././././././.",
"/./././././././././././././././././././././.X + , c ;.:.J ` n.Q.!.!.^.m. .J :.;.D 1 + . /./././././././././././././././././././.",
"/./././././././././././././././././././././.X O 1 x O.O.D _ k.I.Q.~.^.m. .D O.-.D 8 $ . /./././././././././././././././././././.",
"/./././././././././././././././././././././.$ & ; 9 P L D _ l.I.W.Q.^.m. .V L L D w ; # /./././././././././././././././././././.",
"/./././././././././././././././././././.X $ 2 2 & - 9 s g  .M.W.I.U.!.m. .f s f g f w 5 $ X /./././././././././././././././././.",
"/./././././././././././././././././././.X ; F F ; + , 8 p ) h.N.b.b.m.h.) p 8 p ! X.X.F ; . /./././././././././././././././././.",
"/./././././././././././././././././././.  6 9.9.6 O , 8 8 g %.>.=.=.=.%.g 8 5 v s.S.S.w.6   /./././././././././././././././././.",
"/./././././././././././././././././././.  6 6.3.1 + 2 w w m I U U U U I m w w F w.x.x.9.9   /./././././././././././././././././.",
"/./././././././././././././././././././././.8 5 + % e I Y T @.#.#.#.#.#.T Y I M s w y 9 /./././././././././././././././././././.",
"/./././././././././././././././././././././.    . = M U &.*.*.&.&.&.&.*.*.&.U n *       /./././././././././././././././././././.",
"/./././././././././././././././././././././././.. % M +.&.*.*.&.@.@.&.*.*.&.Y n *   /./././././././././././././././././././././.",
"/./././././././././././././././././././././././.. * n Y &.&.&.Y M M Y &.&.&.@.M = X /./././././././././././././././././././././.",
"/./././././././././././././././././././././././.X = n Y &.&.@.N 3 3 M @.&.*.&.Z = X /./././././././././././././././././././././.",
"/./././././././././././././././././././././././.X = n +.#.@.N q # # q M Y %.%.Z = X /./././././././././././././././././././././.",
"/./././././././././././././././././././././././.X = n U Y N 4 % /./.% 4 x K P z - X /./././././././././././././././././././././.",
"/./././././././././././././././././././././././.X * e N M e % X /./.. $ 0 i i 0 & X /./././././././././././././././././././././.",
"/./././././././././././././././././././././././.X # 2 9 w 4 + X /./././.& & & & /./././././././././././././././././././././././.",
"/./././././././././././././././././././././././.X @ < r y < $ X /./././.X X X X /./././././././././././././././././././././././.",
"/./././././././././././././././././././././././.. $ 9 c l 9 & X /./././././././././././././././././././././././././././././././.",
"/./././././././././././././././././././././././.X & 9 l l 9 $ X /./././././././././././././././././././././././././././././././.",
"/././././././././././././././././././././././././.+ ; , > > + /././././././././././././././././././././././././././././././././.",
"/././././././././././././././././././././././././././././././././././././.o o /././././././././././././././././././././././././.",
"/./././././././././././././././././././././././././././././././././././././././././././././././././././././././././././././././.",
"/./././././././././././././././././././././././././././././././././././././././././././././././././././././././././././././././.",
"/./././././././././././././././././././././././././././././././././././././././././././././././././././././././././././././././.",
"/./././././././././././././././././././././././././././././././././././././././././././././././././././././././././././././././.",
"/./././././././././././././././././././././././././././././././././././././././././././././././././././././././././././././././.",
"/./././././././././././././././././././././././././././././././././././././././././././././././././././././././././././././././."
};
