/* XPM */
static char *result[] = {
/* columns rows colors chars-per-pixel */
"64 64 174 2 ",
"   c #060603",
".  c #080704",
"X  c #0A0805",
"o  c #0B0908",
"O  c #140F0C",
"+  c #15110E",
"@  c #19130F",
"#  c #161514",
"$  c #1B1511",
"%  c #171817",
"&  c #1D1914",
"*  c #161819",
"=  c #1A1B1B",
"-  c #211A16",
";  c #251D19",
":  c #2A1E1B",
">  c #23251C",
",  c #2C211D",
"<  c #32231F",
"1  c #2E2523",
"2  c #2E2B25",
"3  c #222729",
"4  c #262928",
"5  c #322521",
"6  c #352926",
"7  c #3B2A25",
"8  c #3C2D29",
"9  c #3C322B",
"0  c #383126",
"q  c #2B3337",
"w  c #3C3332",
"e  c #32363A",
"r  c #422E2A",
"t  c #402C27",
"y  c #44322D",
"u  c #49322D",
"i  c #443C2F",
"p  c #443532",
"a  c #4C3632",
"s  c #453D36",
"d  c #4C3A35",
"f  c #493E3A",
"g  c #453B38",
"h  c #533A35",
"j  c #553E39",
"k  c #583F3A",
"l  c #4D4537",
"z  c #46433B",
"x  c #4C433A",
"c  c #53433A",
"v  c #5C433E",
"b  c #62403C",
"n  c #343E45",
"m  c #413E40",
"M  c #3B454C",
"N  c #3D484E",
"B  c #4F4840",
"V  c #40474E",
"C  c #43494D",
"Z  c #404246",
"A  c #5E4641",
"S  c #534D44",
"D  c #5B4A44",
"F  c #5F4F48",
"G  c #525644",
"H  c #575249",
"J  c #5A564B",
"K  c #5A5D4B",
"L  c #565947",
"P  c #444C52",
"I  c #44535C",
"U  c #4C555C",
"Y  c #50575D",
"T  c #614641",
"R  c #6A4743",
"E  c #634A45",
"W  c #6A4E47",
"Q  c #674D48",
"!  c #6A4E49",
"~  c #714E4A",
"^  c #65534D",
"/  c #73554E",
"(  c #635752",
")  c #695B54",
"_  c #6C5E58",
"`  c #765952",
"'  c #7A5C55",
"]  c #56624C",
"[  c #5D604E",
"{  c #5E6853",
"}  c #646D56",
"|  c #6E615B",
" . c #656F58",
".. c #74635C",
"X. c #7D615A",
"o. c #6B745E",
"O. c #495760",
"+. c #4C5A63",
"@. c #505C65",
"#. c #5D5F61",
"$. c #5A6163",
"%. c #55616A",
"&. c #58646D",
"*. c #62686A",
"=. c #6F7763",
"-. c #747C67",
";. c #757D69",
":. c #666D70",
">. c #8D5654",
",. c #875F59",
"<. c #845B54",
"1. c #925B58",
"2. c #84665D",
"3. c #88635B",
"4. c #886A5F",
"5. c #8D6C62",
"6. c #926C64",
"7. c #8F7066",
"8. c #917167",
"9. c #95746A",
"0. c #9B766C",
"q. c #97796F",
"w. c #9A786C",
"e. c #9F7F73",
"r. c #A8766E",
"t. c #B0736E",
"y. c #A27D72",
"u. c #B37570",
"i. c #9E8779",
"p. c #9F8D7D",
"a. c #A48175",
"s. c #A18F7F",
"d. c #AE897C",
"f. c #B28B7E",
"g. c #9C938B",
"h. c #B78D81",
"j. c #A69486",
"k. c #A89687",
"l. c #A99A8C",
"z. c #B79184",
"x. c #BC9184",
"c. c #BF9689",
"v. c #A79C90",
"b. c #B2A295",
"n. c #B9A99E",
"m. c #B5A89C",
"M. c #B8ABA0",
"N. c #C19487",
"B. c #C29789",
"V. c #CC978B",
"C. c #C4998B",
"Z. c #CA9D8E",
"A. c #CCA193",
"S. c #C6AB98",
"D. c #C8AD99",
"F. c #D1A495",
"G. c #D1A897",
"H. c #DBAC9D",
"J. c #D2A898",
"K. c #C4B19C",
"L. c #C7B4A0",
"P. c #C9B7A4",
"I. c #CEBBA9",
"U. c #D1BEAC",
"Y. c #E4B5A5",
"T. c #E8B7A7",
"R. c #E7B8A8",
"E. c #E8B8A8",
"W. c #D6C4B3",
"Q. c #D8C7B7",
"!. c #DCCBBC",
"~. c #DFCFC0",
"^. c #E0D0C1",
"/. c None",
/* pixels */
"/./././././././././././././././././././././././././././././././././././././././././././././././././././././././././././././././.",
"/./././././././././././././././././././././././././././././././././././././././././././././././././././././././././././././././.",
"/./././././././././././././././././././././././././././././././././././././././././././././././././././././././././././././././.",
"/./././././././././././././././././././././././././././././././././././././././././././././././././././././././././././././././.",
"/./././././././././././././././././././././././././././././././././././././././././././././././././././././././././././././././.",
"/./././././././././././././././././././././././././././././././././././././././././././././././././././././././././././././././.",
"/./././././././././././././././././././././././././././.X X X X /./././.X X /./././././././././././././././././././././././././.",
"/./././././././././././././././././././././././././././.$ $ $ @ /./././.$ @ /./././././././././././././././././././././././././.",
"/./././././././././././././././././././././.X X X X . @ < t 7 < @ . . @ < < @ . /./././././././././././././././././././././././.",
"/./././././././././././././././././././././.$ $ @ @ @ : r j j y : @ @ : u y : @ /./././././././././././././././././././././././.",
"/./././././././././././././././././././.X $ < 7 7 7 7 t j b b c r 7 7 r k j y , + X /./././././././././././././././././././././.",
"/./././././././././././././././././././.X $ < r a h h v E E E E j h h j T T k y , $ /./././././././././././././././././././././.",
"/./././././././././././././././././././././.+ : h E A E E E E E b E A E E E E v j 9 - . /./././././././././././././././././././.",
"/./././././././././././././././././././././.$ 1 h E E E E E E E E E E E E E E E Q j : + /./././././././././././././././././././.",
"/./././././././././././././././././././.X & y j A E E E E E E E E E E E E E E E E v y < @ . /./././././././././././././././././.",
"/./././././././././././././././././././.. - d W E E E E v v v E E T v A T E E E E A h r ; @ /./././././././././././././././././.",
"/./././././././././././././././././././.. - d Q E E E v h h a h T T h h v E E E E A h u r < $ X /./././././././././././././././.",
"/./././././././././././././././././././.@ , d T E E E E ! b h h A E W W E E E E E T k a r < $ o /./././././././././././././././.",
"/./././././././././././././././././.X $ < r a j A E A ` y.0.b u v ` y.0.` A E E E E T d : @ /./././././././././././././././././.",
"/./././././././././././././././././.X $ < t u h v ! ` 9.C.N.4.E E ' x.C.0.` E E E E E d -   /./././././././././././././././././.",
"/./././././././././././././././././././.$ : t a v ` y.N.G.F.x.w./ ' h.G.C.a.` A T E Q d &   /./././././././././././././././././.",
"/./././././././././././././././././././.. @ t j v 2.x.Z.d.d.A.C.8.6.N.A.f.q.4.` E A E j 5 & /./././././././././././././././././.",
"/./././././././././././././././././././.. $ u T A X.x.d.v E z.H.C.C.H.z.E v 0.y.! h A A k p - X /./././././././././././././././.",
"/./././././././././././././././././././.$ 1 j ! ~ 6.N.y.7 8 d.R.H.H.Y.d.8 7 y.x.<.b A A c r & X /./././././././././././././././.",
"/./././././././././././././././././.X $ 6 d A ~ 1.u.V.y.y y d.R.T.T.E.f.p y a.V.t.>.R p < - /./././././././././././././././././.",
"/./././././././././././././././././.X $ 7 a v W 1.t.V.h.` ` C.R.R.T.R.c.` ` f.V.t.>.R r $ . /./././././././././././././././././.",
"/./././././././././././././././././././.$ : a T R ,.N.A.B.C.H.Y.Y.Y.R.H.C.C.F.x.,.R k r $ . /./././././././././././././././././.",
"/./././././././././././././././././././.  $ 6 y a ! 0.B.H.T.Y.Y.Y.Y.Y.Y.R.H.N.0.! h p 6 $ X /./././././././././././././././././.",
"/./././././././././././././././././././././.$ : u A ! 5.C.Y.Y.Y.Y.T.Y.Y.H.C.5.W v p : $ /./././././././././././././././././././.",
"/./././././././././././././././././././././.. $ 6 u a E 5.f.A.Y.Y.H.Y.F.f.8.E a u 6 $ . /./././././././././././././././././././.",
"/./././././././././././././././././././././././.$ : p a 8 E f.H.H.J.H.d.E 9 a u , $ /./././././././././././././././././././././.",
"/./././././././././././././././././././././././.. & d d - 8 e.G.F.G.G.i.9 & d d & . /./././././././././././././././././././././.",
"/./././././././././././././././././././././././.. > G L 9 f i.D.S.S.S.i.x 0 L G > . /./././././././././././././././././././././.",
"/./././././././././././././././././././././././.  > ] } x F j.P.P.K.S.s.F x } ] > . /./././././././././././././././././././././.",
"/./././././././././././././././././././././././.. > ] } B ) b.Q.Q.U.L.s.^ B  .] > X /./././././././././././././././././././././.",
"/./././././././././././././././././././././././.O 2 { o.H | n.^.~.Q.U.k.) S =.{ 2 O /./././././././././././././././././././././.",
"/./././././././././././././././././././././.X O ; s =.-.H _ n.~.~.!.Q.b._ H ;.=.z ; O o /./././././././././././././././././././.",
"/./././././././././././././././././././././.X + 5 S -.-.H _ b.Q.!.~.^.n._ H ;.;.c , O . /./././././././././././././././././././.",
"/./././././././././././././././././././././.X # 8 S o.o.S ) j.I.Q.!.~.n.| S o.o.x 1 + X /./././././././././././././././././././.",
"/./././././././././././././././././././././.$ ; w S [ K S ) k.I.W.Q.~.M.| B K L 9 ; & $ /./././././././././././././././././././.",
"/./././././././././././././././././././.X # 6 w g f f s f | m.W.U.U.!.n.| f g 9 - = 6 2 $ X /./././././././././././././././././.",
"/./././././././././././././././././././.. ; D ....^ p 7 p ( g.M.v.v.m.g.( p 8 , O ; D D ; X /./././././././././././././././././.",
"/./././././././././././././././././././.  6 q.A.A.a.v 5 7 f #.:.*.*.:.#.f 8 8 : O 6 8.7.6   /./././././././././././././././././.",
"/./././././././././././././././././././.  9 8.z.z.q.D w w n P U I I I P m g w 2 # 6 ' 5.8   /./././././././././././././././././.",
"/./././././././././././././././././././././.9 y 9 g M P U Y @.@.@.@.@.@.Y U P e # + 5 8 /./././././././././././././././././././.",
"/./././././././././././././././././././././.      * e +.@.&.&.&.%.%.%.&.&.%.O.n =   .   /./././././././././././././././././././.",
"/./././././././././././././././././././././././.  % n +.%.&.&.%.+.+.@.&.&.@.+.n = . /./././././././././././././././././././././.",
"/./././././././././././././././././././././././.. % M U %.&.%.U M M U &.%.%.U n * X /./././././././././././././././././././././.",
"/./././././././././././././././././././././././.X > P %.&.%.+.M 3 3 N +.%.%.I n = . /./././././././././././././././././././././.",
"/./././././././././././././././././././././././.. = C #.$.Y N q * # q N U @.I n = X /./././././././././././././././././././././.",
"/./././././././././././././././././././././././.. % z H K z 4 % /./.% 3 N +.I M = . /./././././././././././././././././././././.",
"/./././././././././././././././././././././././.X & 0 i i 0 $ . /./.. # e N V e % . /./././././././././././././././././././././.",
"/./././././././././././././././././././././././././.& & & & /./././.X # 1 9 w 1 $ X /./././././././././././././././././././././.",
"/./././././././././././././././././././././././././.X X . . /./././.X @ < r 9 1 + X /./././././././././././././././././././././.",
"/./././././././././././././././././././././././././././././././././.. $ i l l 9 & X /./././././././././././././././././././././.",
"/./././././././././././././././././././././././././././././././././.X & 9 l l 9 & X /./././././././././././././././././././././.",
"/././././././././././././././././././././././././././././././././././.+ ; , > ; + /././././././././././././././././././././././.",
"/././././././././././././././././././././././././././.o o /././././././././././././././././././././././././././././././././././.",
"/./././././././././././././././././././././././././././././././././././././././././././././././././././././././././././././././.",
"/./././././././././././././././././././././././././././././././././././././././././././././././././././././././././././././././.",
"/./././././././././././././././././././././././././././././././././././././././././././././././././././././././././././././././.",
"/./././././././././././././././././././././././././././././././././././././././././././././././././././././././././././././././.",
"/./././././././././././././././././././././././././././././././././././././././././././././././././././././././././././././././.",
"/./././././././././././././././././././././././././././././././././././././././././././././././././././././././././././././././."
};
