/* XPM */
static char *result[] = {
/* columns rows colors chars-per-pixel */
"64 64 119 2 ",
"   c #000000",
".  c #0C0C0D",
"X  c #120606",
"o  c #160909",
"O  c #180C0C",
"+  c #0F0F10",
"@  c #131314",
"#  c #1D1C1D",
"$  c #240D0E",
"%  c #261010",
"&  c #291112",
"*  c #3A1919",
"=  c #1F1F20",
"-  c #1F2020",
";  c #232324",
":  c #272728",
">  c #2B2B2B",
",  c #332526",
"<  c #2E2D30",
"1  c #343435",
"2  c #373639",
"3  c #383739",
"4  c #3A3A3B",
"5  c #471D1E",
"6  c #4A1D1D",
"7  c #4A1F20",
"8  c #561F20",
"9  c #4E2121",
"0  c #512223",
"q  c #5C2425",
"w  c #5C2728",
"e  c #53292A",
"r  c #5E2829",
"t  c #523334",
"y  c #602627",
"u  c #602728",
"i  c #63292A",
"p  c #682C2D",
"a  c #642F30",
"s  c #673132",
"d  c #6B3C3E",
"f  c #3F3E42",
"g  c #6D3F40",
"h  c #434345",
"j  c #474748",
"k  c #4A494B",
"l  c #4E4D51",
"z  c #545455",
"x  c #555559",
"c  c #58575A",
"v  c #5C5B5E",
"b  c #6E4143",
"n  c #714547",
"m  c #714748",
"M  c #725153",
"N  c #7B5B5D",
"B  c #5E5D61",
"V  c #685F61",
"C  c #636265",
"Z  c #666569",
"A  c #6B6A6E",
"S  c #716365",
"D  c #746A6D",
"F  c #706F72",
"G  c #737275",
"H  c #76767A",
"J  c #78777C",
"K  c #7A797D",
"L  c #815556",
"P  c #835758",
"I  c #846B6E",
"U  c #8C6C6E",
"Y  c #7E7D81",
"T  c #807F82",
"R  c #8C7D81",
"E  c #818185",
"W  c #8F8185",
"Q  c #868588",
"!  c #88878B",
"~  c #8B8A8D",
"^  c #918386",
"/  c #928589",
"(  c #93898C",
")  c #8F8F90",
"_  c #949397",
"`  c #96959A",
"'  c #9A969A",
"]  c #9A999C",
"[  c #A1969A",
"{  c #A3989B",
"}  c #A2A2A6",
"|  c #A7A6A8",
" . c #A8A7A9",
".. c #ABAAAC",
"X. c #AFAEB1",
"o. c #B1AFB3",
"O. c #B3B3B5",
"+. c #B7B7B9",
"@. c #B8B7B9",
"#. c #BCBBBE",
"$. c #C3B5B7",
"%. c #C5B6B8",
"&. c #C7BCBF",
"*. c #BEBEC1",
"=. c #C0BFC2",
"-. c #C2C1C5",
";. c #C6C5C9",
":. c #CCCACD",
">. c #CFCFD0",
",. c #D4D3D6",
"<. c #D6D5D8",
"1. c #D8D7DA",
"2. c #DBDADD",
"3. c #E4E3E5",
"4. c #E6E5E8",
"5. c #EDEDEE",
"6. c #F4F4F5",
"7. c #F9F9F9",
"8. c None",
/* pixels */
"8.8.8.8.8.8.8.8.8.8.8.8.8.8.8.8.8.8.8.8.8.8.8.8.8.8.8.8.8.8.8.8.8.8.8.8.8.8.8.8.8.8.8.8.8.8.8.8.8.8.8.8.8.8.8.8.8.8.8.8.8.8.8.8.",
"8.8.8.8.8.8.8.8.8.8.8.8.8.8.8.8.8.8.8.8.8.8.8.8.8.8.8.8.8.8.8.8.8.8.8.8.8.8.8.8.8.8.8.8.8.8.8.8.8.8.8.8.8.8.8.8.8.8.8.8.8.8.8.8.",
"8.8.8.8.8.8.8.8.8.8.8.8.8.8.8.8.8.8.8.8.8.8.8.8.8.8.8.8.8.8.8.8.8.8.8.8.8.8.8.8.8.8.8.8.8.8.8.8.8.8.8.8.8.8.8.8.8.8.8.8.8.8.8.8.",
"8.8.8.8.8.8.8.8.8.8.8.8.8.8.8.8.8.8.8.8.8.8.8.8.8.8.8.8.8.8.8.8.8.8.8.8.8.8.8.8.8.8.8.8.8.8.8.8.8.8.8.8.8.8.8.8.8.8.8.8.8.8.8.8.",
"8.8.8.8.8.8.8.8.8.8.8.8.8.8.8.8.8.8.8.8.8.8.8.8.8.8.8.8.8.8.8.8.8.8.8.8.8.8.8.8.8.8.8.8.8.8.8.8.8.8.8.8.8.8.8.8.8.8.8.8.8.8.8.8.",
"8.8.8.8.8.8.8.8.8.8.8.8.8.8.8.8.8.8.8.8.8.8.8.8.8.8.8.8.8.8.8.8.8.8.8.8.8.8.8.8.8.8.8.8.8.8.8.8.8.8.8.8.8.8.8.8.8.8.8.8.8.8.8.8.",
"8.8.8.8.8.8.8.8.8.8.8.8.8.8.8.8.8.8.8.8.8.8.8.8.8.8.8.8.8.8.8.8.8.8.8.8.8.8.8.8.8.8.8.8.8.8.8.8.8.8.8.8.8.8.8.8.8.8.8.8.8.8.8.8.",
"8.8.8.8.8.8.8.8.8.8.8.8.8.8.8.8.8.8.8.8.8.8.8.8.8.8.8.8.8.8.8.8.8.8.8.8.8.8.8.8.8.8.8.8.8.8.8.8.8.8.8.8.8.8.8.8.8.8.8.8.8.8.8.8.",
"8.8.8.8.8.8.8.8.8.8.8.8.8.8.8.8.8.8.8.8.8.8.8.8.8.8.8.8.8.8.8.8.8.8.8.8.8.8.8.8.8.8.8.8.8.8.8.8.8.8.8.8.8.8.8.8.8.8.8.8.8.8.8.8.",
"8.8.8.8.8.8.8.8.8.8.8.8.8.8.8.8.8.8.8.8.8.8.8.8.8.8.8.8.8.8.8.8.8.8.8.8.8.8.8.8.8.8.8.8.8.8.8.8.8.8.8.8.8.8.8.8.8.8.8.8.8.8.8.8.",
"8.8.8.8.8.8.8.8.8.8.8.8.8.8.8.8.8.8.8.8.8.8.8.8.8.8.8.8.8.8.8.8.8.8.8.8.8.8.8.8.8.8.8.8.8.8.8.8.8.8.8.8.8.8.8.8.8.8.8.8.8.8.8.8.",
"8.8.8.8.8.8.8.8.8.8.8.8.8.8.8.8.8.8.8.8.8.8.8.8.8.8.8.8.8.8.8.8.8.8.8.8.8.8.8.8.8.8.8.8.8.8.8.8.8.8.8.8.8.8.8.8.8.8.8.8.8.8.8.8.",
"8.8.8.8.8.8.8.8.8.8.8.8.8.8.8.8.8.8.8.8.8.8.8.8.8.8.8.8.8.8.8.8.8.8.8.8.8.8.8.8.8.8.8.8.8.8.8.8.8.8.8.8.8.8.8.8.8.8.8.8.8.8.8.8.",
"8.8.8.8.8.8.8.8.8.8.8.8.8.8.8.8.8.8.8.8.8.8.8.8.8.8.8.8.8.8.8.8.8.8.8.8.8.8.8.8.8.8.8.8.8.8.8.8.8.8.8.8.8.8.8.8.8.8.8.8.8.8.8.8.",
"8.8.8.8.8.8.8.8.8.8.8.8.8.8.8.8.8.8.        8.8.8.8.8.8.8.8.8.8.8.8.8.8.8.8.8.8.8.8.8.8.8.8.8.8.8.8.8.8.        8.8.8.8.8.8.8.8.",
"8.8.8.8.8.8.8.8.8.8.8.8.8.8.8.8.8.8.@ @ @ @ 8.8.8.8.8.8.8.8.8.8.8.8.8.8.8.8.8.8.8.8.8.8.8.8.8.8.8.8.8.8.@ @ @ @ 8.8.8.8.8.8.8.8.",
"8.8.8.8.8.8.8.8.8.8.8.8.          + 1 h h 1 .                                                         . 1 f h 1 +   8.8.8.8.8.8.",
"8.8.8.8.8.8.8.8.8.8.8.8.    + # > h A T Q F j 1 4 4 3 2 2 < # @ = ; ; : 1 1 1 1 1 1 1 1 1 1 1 1 1 1 1 j A Y Y Z f = 8.8.8.8.8.8.",
"8.8.8.8.8.8.8.8.8.8.8.8.  @ 1 v ~ ..+.-.,.:... .@.@.X... .~ c k C G F Y ' |  . . . .| |  . .| | | | | ..*.*.=.X.Q c =   8.8.8.8.",
"8.8.8.8.8.8.8.8.8.8.8.8.  @ 1 A #.3.2.4.6.7.5.5.7.7.6.5.5.:.` ! } X.X.*.2.4.3.3.4.4.4.4.4.4.4.3.4.4.4.4.4.4.4.<.o.G ;   8.8.8.8.",
"8.8.8.8.8.8.8.8.8.8.8.8.8.8.+ j ..3.2.3.4.5.7.7.5.5.7.7.5.2.:.;.>.,.,.1.3.3.3.3.3.3.3.3.3.3.3.3.4.4.3.3.3.3.4.,.o.G ;   8.8.8.8.",
"8.8.8.8.8.8.8.8.8.8.8.8.8.8.. 4 ) #.#.@.@.=.>.>.*.=.>.>.-.#.*.*.*.=.*.*.*.*.*.*.#.*.*.*.#.*.*.*.#.#.#.*.*.*.*.+. .G ;   8.8.8.8.",
"8.8.8.8.8.8.8.8.          + < l A H H G H H Y Y H H K Y K K K K J J J J J J H H J J H H J J H J H J J J J G H T ` H :   8.8.8.8.",
"8.8.8.8.8.8.8.8.  . > 3 1 j A Y K K K K K K H H H K K H K K K K Y K K J J J J Y J J Y J K K K K K K K K J Y Y J H v ;   8.8.8.8.",
"8.8.8.8.8.8.8.8.  : K O...X.*.-.-.-.=.=.=.=.=.=.=.=.=.=.-.-.-.-.=.=.-.=.=.*.=.-.-.-.-.-.-.-.-.-.-.-.-.-.-.;.;.] k # 8.8.8.8.8.8.",
"8.8.8.8.8.8.8.8.  1 ! @.:.<.,.:.&.$.%.%.$.$.%.&.>.>.;.=.-.*.X.....X...O.:.:.O.................................Q <   8.8.8.8.8.8.",
"8.8.8.8.8.8.8.8.8.8.< z _ O.O.} U P P P L L L U { } ~ T T A j 1 1 1 1 x _ ` x 1 1 3 3 1 1 1 1 3 1 3 1 1 3 3 1 1 8.8.8.8.8.8.8.8.",
"8.8.8.8.8.8.8.8.8.8.  # c Y _ U g 8 6 6 q q q g R Q z f 4 1 # .     @ 4 C v #                                   8.8.8.8.8.8.8.8.",
"8.8.8.8.8.8.8.8.8.8.8.8.# h Y W n 6 $ $ 6 y q g R K 1 . . # 2 < . @ c C 3 # 8.8.8.8.8.8.8.8.8.8.8.8.8.8.8.8.8.8.8.8.8.8.8.8.8.8.",
"8.8.8.8.8.8.8.8.8.8.8.8.  # S I g 6 % % 9 a d N ( T h ; - 3 B v 3 3 C B =   8.8.8.8.8.8.8.8.8.8.8.8.8.8.8.8.8.8.8.8.8.8.8.8.8.8.",
"8.8.8.8.8.8.8.8.8.8.8.8.  O t b s w 9 6 q d D ^ ] _ T G G Y ~ ~ E C 3 ; 8.8.8.8.8.8.8.8.8.8.8.8.8.8.8.8.8.8.8.8.8.8.8.8.8.8.8.8.",
"8.8.8.8.8.8.8.8.8.8.8.8.  o 5 i i i i i y n W ] Y F G H H H G H K v =   8.8.8.8.8.8.8.8.8.8.8.8.8.8.8.8.8.8.8.8.8.8.8.8.8.8.8.8.",
"8.8.8.8.8.8.8.8.8.8.8.8.  o 5 i i i i u y m ^ E h ; ; : : : : : : ; 8.8.8.8.8.8.8.8.8.8.8.8.8.8.8.8.8.8.8.8.8.8.8.8.8.8.8.8.8.8.",
"8.8.8.8.8.8.8.8.8.8.8.8.o & 9 i i i i a d M D v #                   8.8.8.8.8.8.8.8.8.8.8.8.8.8.8.8.8.8.8.8.8.8.8.8.8.8.8.8.8.8.",
"8.8.8.8.8.8.8.8.8.8.  o * 0 w i r r u g I D 4 ; 8.8.8.8.8.8.8.8.8.8.8.8.8.8.8.8.8.8.8.8.8.8.8.8.8.8.8.8.8.8.8.8.8.8.8.8.8.8.8.8.",
"8.8.8.8.8.8.8.8.8.8.  o 9 p i i i u q m ^ H ;   8.8.8.8.8.8.8.8.8.8.8.8.8.8.8.8.8.8.8.8.8.8.8.8.8.8.8.8.8.8.8.8.8.8.8.8.8.8.8.8.",
"8.8.8.8.8.8.8.8.8.8.  o 9 i i r i u q n / H :   8.8.8.8.8.8.8.8.8.8.8.8.8.8.8.8.8.8.8.8.8.8.8.8.8.8.8.8.8.8.8.8.8.8.8.8.8.8.8.8.",
"8.8.8.8.8.8.8.8.8.8.o & 9 i i i r a d M D v ;   8.8.8.8.8.8.8.8.8.8.8.8.8.8.8.8.8.8.8.8.8.8.8.8.8.8.8.8.8.8.8.8.8.8.8.8.8.8.8.8.",
"8.8.8.8.8.8.8.8.  o * 0 q i i i u g I D 4 ; 8.8.8.8.8.8.8.8.8.8.8.8.8.8.8.8.8.8.8.8.8.8.8.8.8.8.8.8.8.8.8.8.8.8.8.8.8.8.8.8.8.8.",
"8.8.8.8.8.8.8.8.  o 9 i i i r r y m W H ;   8.8.8.8.8.8.8.8.8.8.8.8.8.8.8.8.8.8.8.8.8.8.8.8.8.8.8.8.8.8.8.8.8.8.8.8.8.8.8.8.8.8.",
"8.8.8.8.8.8.8.8.  o 5 p i i r u y m ^ H ;   8.8.8.8.8.8.8.8.8.8.8.8.8.8.8.8.8.8.8.8.8.8.8.8.8.8.8.8.8.8.8.8.8.8.8.8.8.8.8.8.8.8.",
"8.8.8.8.8.8.8.8.o & 9 r 9 9 w i q m ^ H ;   8.8.8.8.8.8.8.8.8.8.8.8.8.8.8.8.8.8.8.8.8.8.8.8.8.8.8.8.8.8.8.8.8.8.8.8.8.8.8.8.8.8.",
"8.8.8.8.8.8.  o * 9 r 9 % % 9 i i m ^ H :   8.8.8.8.8.8.8.8.8.8.8.8.8.8.8.8.8.8.8.8.8.8.8.8.8.8.8.8.8.8.8.8.8.8.8.8.8.8.8.8.8.8.",
"8.8.8.8.8.8.  o 9 p p 9 & & 9 i i d S v ;   8.8.8.8.8.8.8.8.8.8.8.8.8.8.8.8.8.8.8.8.8.8.8.8.8.8.8.8.8.8.8.8.8.8.8.8.8.8.8.8.8.8.",
"8.8.8.8.8.8.  o 9 p p w 9 9 r p i e , ; 8.8.8.8.8.8.8.8.8.8.8.8.8.8.8.8.8.8.8.8.8.8.8.8.8.8.8.8.8.8.8.8.8.8.8.8.8.8.8.8.8.8.8.8.",
"8.8.8.8.8.8.  o * 7 5 7 9 9 5 5 5 * X   8.8.8.8.8.8.8.8.8.8.8.8.8.8.8.8.8.8.8.8.8.8.8.8.8.8.8.8.8.8.8.8.8.8.8.8.8.8.8.8.8.8.8.8.",
"8.8.8.8.8.8.8.8.o o O o o O o O O o 8.8.8.8.8.8.8.8.8.8.8.8.8.8.8.8.8.8.8.8.8.8.8.8.8.8.8.8.8.8.8.8.8.8.8.8.8.8.8.8.8.8.8.8.8.8.",
"8.8.8.8.8.8.8.8.                    8.8.8.8.8.8.8.8.8.8.8.8.8.8.8.8.8.8.8.8.8.8.8.8.8.8.8.8.8.8.8.8.8.8.8.8.8.8.8.8.8.8.8.8.8.8.",
"8.8.8.8.8.8.8.8.8.8.8.8.8.8.8.8.8.8.8.8.8.8.8.8.8.8.8.8.8.8.8.8.8.8.8.8.8.8.8.8.8.8.8.8.8.8.8.8.8.8.8.8.8.8.8.8.8.8.8.8.8.8.8.8.",
"8.8.8.8.8.8.8.8.8.8.8.8.8.8.8.8.8.8.8.8.8.8.8.8.8.8.8.8.8.8.8.8.8.8.8.8.8.8.8.8.8.8.8.8.8.8.8.8.8.8.8.8.8.8.8.8.8.8.8.8.8.8.8.8.",
"8.8.8.8.8.8.8.8.8.8.8.8.8.8.8.8.8.8.8.8.8.8.8.8.8.8.8.8.8.8.8.8.8.8.8.8.8.8.8.8.8.8.8.8.8.8.8.8.8.8.8.8.8.8.8.8.8.8.8.8.8.8.8.8.",
"8.8.8.8.8.8.8.8.8.8.8.8.8.8.8.8.8.8.8.8.8.8.8.8.8.8.8.8.8.8.8.8.8.8.8.8.8.8.8.8.8.8.8.8.8.8.8.8.8.8.8.8.8.8.8.8.8.8.8.8.8.8.8.8.",
"8.8.8.8.8.8.8.8.8.8.8.8.8.8.8.8.8.8.8.8.8.8.8.8.8.8.8.8.8.8.8.8.8.8.8.8.8.8.8.8.8.8.8.8.8.8.8.8.8.8.8.8.8.8.8.8.8.8.8.8.8.8.8.8.",
"8.8.8.8.8.8.8.8.8.8.8.8.8.8.8.8.8.8.8.8.8.8.8.8.8.8.8.8.8.8.8.8.8.8.8.8.8.8.8.8.8.8.8.8.8.8.8.8.8.8.8.8.8.8.8.8.8.8.8.8.8.8.8.8.",
"8.8.8.8.8.8.8.8.8.8.8.8.8.8.8.8.8.8.8.8.8.8.8.8.8.8.8.8.8.8.8.8.8.8.8.8.8.8.8.8.8.8.8.8.8.8.8.8.8.8.8.8.8.8.8.8.8.8.8.8.8.8.8.8.",
"8.8.8.8.8.8.8.8.8.8.8.8.8.8.8.8.8.8.8.8.8.8.8.8.8.8.8.8.8.8.8.8.8.8.8.8.8.8.8.8.8.8.8.8.8.8.8.8.8.8.8.8.8.8.8.8.8.8.8.8.8.8.8.8.",
"8.8.8.8.8.8.8.8.8.8.8.8.8.8.8.8.8.8.8.8.8.8.8.8.8.8.8.8.8.8.8.8.8.8.8.8.8.8.8.8.8.8.8.8.8.8.8.8.8.8.8.8.8.8.8.8.8.8.8.8.8.8.8.8.",
"8.8.8.8.8.8.8.8.8.8.8.8.8.8.8.8.8.8.8.8.8.8.8.8.8.8.8.8.8.8.8.8.8.8.8.8.8.8.8.8.8.8.8.8.8.8.8.8.8.8.8.8.8.8.8.8.8.8.8.8.8.8.8.8.",
"8.8.8.8.8.8.8.8.8.8.8.8.8.8.8.8.8.8.8.8.8.8.8.8.8.8.8.8.8.8.8.8.8.8.8.8.8.8.8.8.8.8.8.8.8.8.8.8.8.8.8.8.8.8.8.8.8.8.8.8.8.8.8.8.",
"8.8.8.8.8.8.8.8.8.8.8.8.8.8.8.8.8.8.8.8.8.8.8.8.8.8.8.8.8.8.8.8.8.8.8.8.8.8.8.8.8.8.8.8.8.8.8.8.8.8.8.8.8.8.8.8.8.8.8.8.8.8.8.8.",
"8.8.8.8.8.8.8.8.8.8.8.8.8.8.8.8.8.8.8.8.8.8.8.8.8.8.8.8.8.8.8.8.8.8.8.8.8.8.8.8.8.8.8.8.8.8.8.8.8.8.8.8.8.8.8.8.8.8.8.8.8.8.8.8.",
"8.8.8.8.8.8.8.8.8.8.8.8.8.8.8.8.8.8.8.8.8.8.8.8.8.8.8.8.8.8.8.8.8.8.8.8.8.8.8.8.8.8.8.8.8.8.8.8.8.8.8.8.8.8.8.8.8.8.8.8.8.8.8.8.",
"8.8.8.8.8.8.8.8.8.8.8.8.8.8.8.8.8.8.8.8.8.8.8.8.8.8.8.8.8.8.8.8.8.8.8.8.8.8.8.8.8.8.8.8.8.8.8.8.8.8.8.8.8.8.8.8.8.8.8.8.8.8.8.8.",
"8.8.8.8.8.8.8.8.8.8.8.8.8.8.8.8.8.8.8.8.8.8.8.8.8.8.8.8.8.8.8.8.8.8.8.8.8.8.8.8.8.8.8.8.8.8.8.8.8.8.8.8.8.8.8.8.8.8.8.8.8.8.8.8."
};
