/* XPM */
static char *result[] = {
/* columns rows colors chars-per-pixel */
"64 64 195 2 ",
"   c #000000",
".  c #0A0606",
"X  c #0D0B0A",
"o  c #0C0A05",
"O  c #100605",
"+  c #110907",
"@  c #120C0A",
"#  c #13140E",
"$  c #14180F",
"%  c #141511",
"&  c #1A1512",
"*  c #161A11",
"=  c #1A1C15",
"-  c #1F1B19",
";  c #241B15",
":  c #2B1B11",
">  c #231D1B",
",  c #241610",
"<  c #301A14",
"1  c #3B1E17",
"2  c #1E231B",
"3  c #222316",
"4  c #24241C",
"5  c #28221D",
"6  c #262A1E",
"7  c #36231A",
"8  c #3D221A",
"9  c #332E1E",
"0  c #28311F",
"q  c #232622",
"w  c #2B2521",
"e  c #262925",
"r  c #2C2B25",
"t  c #312723",
"y  c #332A26",
"u  c #352C28",
"i  c #392F2B",
"p  c #382F27",
"a  c #2C3124",
"s  c #2D3328",
"d  c #3A3027",
"f  c #333E27",
"g  c #32342B",
"h  c #3C322C",
"j  c #3E392F",
"k  c #343020",
"l  c #3D3531",
"z  c #3F3A32",
"x  c #363931",
"c  c #43291F",
"v  c #5E2C1D",
"b  c #6C2C1B",
"n  c #7F311B",
"m  c #452D25",
"M  c #4B2D24",
"N  c #412F29",
"B  c #522E24",
"V  c #443426",
"C  c #43322A",
"Z  c #4B332B",
"A  c #4C3D2B",
"S  c #553126",
"D  c #563528",
"F  c #593629",
"G  c #5A3C2C",
"H  c #53382C",
"J  c #423631",
"K  c #443A34",
"L  c #483D37",
"P  c #453D39",
"I  c #493D38",
"U  c #573F31",
"Y  c #663B26",
"T  c #37442C",
"R  c #38432C",
"E  c #3D4132",
"W  c #3E4A32",
"Q  c #4D432D",
"!  c #5A422F",
"~  c #56402E",
"^  c #464136",
"/  c #4B4334",
"(  c #434B32",
")  c #4D4339",
"_  c #444E3A",
"`  c #4C4B38",
"'  c #5D4532",
"]  c #544B35",
"[  c #5D4A35",
"{  c #554F3A",
"}  c #465537",
"|  c #4B543C",
" . c #4C5B3D",
".. c #4A5337",
"X. c #56523A",
"o. c #5D543C",
"O. c #5C5B3D",
"+. c #55583B",
"@. c #76432C",
"#. c #79432B",
"$. c #614B35",
"%. c #664E3A",
"&. c #62533D",
"*. c #6B5539",
"=. c #625A3D",
"-. c #685C3E",
";. c #454A41",
":. c #4D4C44",
">. c #534C45",
",. c #4D5A40",
"<. c #555243",
"1. c #535C44",
"2. c #5C554D",
"3. c #5D5A4F",
"4. c #635740",
"5. c #645C41",
"6. c #6E5D45",
"7. c #615951",
"8. c #526143",
"9. c #5E6644",
"0. c #5E6A46",
"q. c #5C634D",
"w. c #5D6B4D",
"e. c #5E734B",
"r. c #5F6950",
"t. c #676346",
"y. c #6A6347",
"u. c #65644A",
"i. c #69654C",
"p. c #636C4B",
"a. c #6B694E",
"s. c #616D47",
"d. c #736E49",
"f. c #61744D",
"g. c #626E53",
"h. c #6A6E53",
"j. c #656B5E",
"k. c #647451",
"l. c #6C7355",
"z. c #667954",
"x. c #6A7C57",
"c. c #6D7D5C",
"v. c #6F7658",
"b. c #737D57",
"n. c #707D5D",
"m. c #6F6E61",
"M. c #6F7365",
"N. c #707A63",
"B. c #747768",
"V. c #82432A",
"C. c #895E41",
"Z. c #8B6243",
"A. c #927655",
"S. c #8B7A5A",
"D. c #6B824C",
"F. c #6F815D",
"G. c #70815F",
"H. c #748653",
"J. c #738361",
"K. c #788765",
"L. c #778A60",
"P. c #7A8A65",
"I. c #7B886B",
"U. c #7D9267",
"Y. c #7C8475",
"T. c #8E825D",
"R. c #81985D",
"E. c #848D69",
"W. c #878966",
"Q. c #938B67",
"!. c #948F69",
"~. c #84916C",
"^. c #88906D",
"/. c #839C60",
"(. c #94906A",
"). c #838D7B",
"_. c #899073",
"`. c #8E9A73",
"'. c #86907E",
"]. c #88917F",
"[. c #95AC6F",
"{. c #8B9381",
"}. c #919785",
"|. c #929C86",
" X c #949B88",
".X c #96A389",
"XX c #9AA48E",
"oX c #9BA88E",
"OX c #9DA990",
"+X c #A1AB87",
"@X c #A9B689",
"#X c #A2AE97",
"$X c #A4AF99",
"%X c #A6B29B",
"&X c None",
/* pixels */
"&X&X&X&X&X&X&X&X&X&X&X&X&X&X&X&X&X&X&X&X&X&X&X&X&X&X&X&X&X&X&X&X&X&X&X&X&X&X&X&X&X&X&X&X&X&X&X&X&X&X&X&X&X&X&X&X&X&X&X&X&X&X&X&X",
"&X&X&X&X&X&X&X&X&X&X&X&X&X&X&X&X&X&X&X&X&X&X&X&X&X&X&X&X&X&X&X&X&X&X&X&X&X&X&X&X&X&X&X&X&X&X&X&X&X&X&X&X&X&X&X&X&X&X&X&X&X&X&X&X",
"&X&X&X&X&X&X&X&X&X&X&X&X&X&X&X&X&X&X&X&X&X&X&X&X&X&X&X&X&X&X&X&X&X&X&X&X&X&X&X&X&X&X&X&X&X&X&X&X&X&X&X&X&X&X&X&X&X&X&X&X&X&X&X&X",
"&X&X&X&X&X&X&X&X&X&X&X&X&X&X&X&X&X&X&X&X&X&X&X&X&X&X&X&X&X&X&X&X&X&X&X&X&X&X&X&X&X&X&X&X&X&X&X&X&X&X&X&X&X&X&X&X&X&X&X&X&X&X&X&X",
"&X&X&X&X&X&X&X&X&X&X&X&X&X&X&X&X&X&X&X&X&X&X&X&X&X&X&X&X&X&X&X&X&X&X&X&X&X&X&X&X&X&X&X&X&X&X&X&X&X&X&X&X&X&X&X&X&X&X&X&X&X&X&X&X",
"&X&X&X&X&X&X&X&X&X&X&X&X&X&X&X&X&X&X&X&X&X&X&X&X&X&X&X&X&X&X&X&X&X&X&X&X&X&X&X&X&X&X&X&X&X&X&X&X&X&X&X&X&X&X&X&X&X&X&X&X&X&X&X&X",
"&X&X&X&X&X&X&X&X&X&X&X&X&X&X&X&X&X&X&X&X&X&X&X&X&X&X&X&X                    &X&X&X&X&X&X&X&X&X&X&X&X&X&X&X&X&X&X&X&X&X&X&X&X&X&X",
"&X&X&X&X&X&X&X&X&X&X&X&X&X&X&X&X&X&X&X&X&X&X&X&X&X&X&X&X@ @ @ @ @ @ @ @ @ @ &X&X&X&X&X&X&X&X&X&X&X&X&X&X&X&X&X&X&X&X&X&X&X&X&X&X",
"&X&X&X&X&X&X&X&X&X&X&X&X&X&X&X&X&X&X&X&X&X&X&X&X&X&X  + 7 c 8 8 c 1 8 8 c : O   &X&X&X&X&X&X&X&X&X&X&X&X&X&X&X&X&X&X&X&X&X&X&X&X",
"&X&X&X&X&X&X&X&X&X&X&X&X&X&X&X&X&X&X&X&X&X&X&X&X&X&X@ 3 Q ' G S v B B B S c ; $ &X&X&X&X&X&X&X&X&X&X&X&X&X&X&X&X&X&X&X&X&X&X&X&X",
"&X&X&X&X&X&X&X&X&X&X&X&X&X&X&X&X&X&X&X&X&X&X&X&X  @ 7 A O.O.' D B B B B F ~ ..T #   &X&X&X&X&X&X&X&X&X&X&X&X&X&X&X&X&X&X&X&X&X&X",
"&X&X&X&X&X&X&X&X&X&X&X&X&X&X&X&X&X&X&X&X&X&X&X&XO , M $.9.9.[ D B B B F ! O.s. .a $ &X&X&X&X&X&X&X&X&X&X&X&X&X&X&X&X&X&X&X&X&X&X",
"&X&X&X&X&X&X&X&X&X&X&X&X&X&X&X&X&X&X&X&X&X&X  + < c F $.9.9.[ D B B S ' o.0.e.0. .T *   &X&X&X&X&X&X&X&X&X&X&X&X&X&X&X&X&X&X&X&X",
"&X&X&X&X&X&X&X&X&X&X&X&X&X&X&X&X&X&X&X&X&X&X  @ 8 S F ' 9.9.[ D B F ' o.0.e.e.f.f.} *   &X&X&X&X&X&X&X&X&X&X&X&X&X&X&X&X&X&X&X&X",
"&X&X&X&X&X&X&X&X&X&X&X&X&X&X&X&X&X&X&X&X&X&X  + 8 D F [ 9.9.[ G F ' 4.p.e.e.e.e.f.} 2   &X&X&X&X&X&X&X&X&X&X&X&X&X&X&X&X&X&X&X&X",
"&X&X&X&X&X&X&X&X&X&X&X&X&X&X&X&X&X&X&X&X&X&X  @ 8 F ! o.0.t.[ G $.4.k.x.k.e.e.e.f.} $   &X&X&X&X&X&X&X&X&X&X&X&X&X&X&X&X&X&X&X&X",
"&X&X&X&X&X&X&X&X&X&X&X&X&X&X&X&X&X&X&X&X&X&X  @ c ! O.0.f.p.[ [ u.l.c.c.z.k.e.e.f.} *   &X&X&X&X&X&X&X&X&X&X&X&X&X&X&X&X&X&X&X&X",
"&X&X&X&X&X&X&X&X&X&X&X&X&X&X&X&X&X&X&X&X&X&X  # V &.s.z.c.p.[ $.l.J.J.c.c.x.z.f.f.} *   &X&X&X&X&X&X&X&X&X&X&X&X&X&X&X&X&X&X&X&X",
"&X&X&X&X&X&X&X&X&X&X&X&X&X&X&X&X&X&X&X&X&X&X  & ( s.k.x.F.a.$.$.h.J.J.F.c.c.z.z.f.} *   &X&X&X&X&X&X&X&X&X&X&X&X&X&X&X&X&X&X&X&X",
"&X&X&X&X&X&X&X&X&X&X&X&X&X&X&X&X&X&X&X&X&X&X  *  .w.8. .1.1.o.&.i.l.N.z.w.1. .8.e. .*   &X&X&X&X&X&X&X&X&X&X&X&X&X&X&X&X&X&X&X&X",
"&X&X&X&X&X&X&X&X&X&X&X&X&X&X&X&X&X&X&X&X&X&X  =  .8.a # * a 1.a.4.5.v.r.a % % a 8. .=   &X&X&X&X&X&X&X&X&X&X&X&X&X&X&X&X&X&X&X&X",
"&X&X&X&X&X&X&X&X&X&X&X&X&X&X&X&X&X&X&X&X&X&X  = 1.w.E 6 3 f s.l.[ [ l.w.T 3 6 E w. .=   &X&X&X&X&X&X&X&X&X&X&X&X&X&X&X&X&X&X&X&X",
"&X&X&X&X&X&X&X&X&X&X&X&X&X&X&X&X&X&X&X&X&X&X  =  .J._.^.H.D.G.l.[ [ h.F.D.H.^._.J.,.=   &X&X&X&X&X&X&X&X&X&X&X&X&X&X&X&X&X&X&X&X",
"&X&X&X&X&X&X&X&X&X&X&X&X&X&X&X&X&X&X&X&X&X&X  * ,.I.+X@X[.R.G.l.4.&.i.b.R.[.@X+XP. .=   &X&X&X&X&X&X&X&X&X&X&X&X&X&X&X&X&X&X&X&X",
"&X&X&X&X&X&X&X&X&X&X&X&X&X&X&X&X&X&X&X&X&X&X  = 1.K.~.~.P.L.J.c.v.i.&.5.b.U.~.E.L.1.=   &X&X&X&X&X&X&X&X&X&X&X&X&X&X&X&X&X&X&X&X",
"&X&X&X&X&X&X&X&X&X&X&X&X&X&X&X&X&X&X&X&X&X&X  = 8.F.F.N.c.J.G.J.F.l.=.&.u.l.N.F.F.1.=   &X&X&X&X&X&X&X&X&X&X&X&X&X&X&X&X&X&X&X&X",
"&X&X&X&X&X&X&X&X&X&X&X&X&X&X&X&X&X&X&X&X&X&X  * } x.F.F.n.n.J.n.F.c.l.u.o.&.l.F.F. .*   &X&X&X&X&X&X&X&X&X&X&X&X&X&X&X&X&X&X&X&X",
"&X&X&X&X&X&X&X&X&X&X&X&X&X&X&X&X&X&X&X&X&X&Xx s W 8.k.F.K.K.J.J.I.I.J.v.y.6.h.p. .T *   &X&X&X&X&X&X&X&X&X&X&X&X&X&X&X&X&X&X&X&X",
"&X&X&X&X&X&X&X&X&X&X&X&X&X&X&X&X&X&X&X&X.X.X{.j.s 0  .G.`.`.L.L.`.`.I.K.^.S.6.Q 4 # &X&X&X&X&X&X&X&X&X&X&X&X&X&X&X&X&X&X&X&X&X&X",
"&X&X&X&X&X&X&X&X&X&X&X&X&X&X&X&X&X&X&X&XoX.X{.j.e = ( k.^.`.~.W.Q.Q.E.E.!.S.%.m & X &X&X&X&X&X&X&X&X&X&X&X&X&X&X&X&X&X&X&X&X&X&X",
"&X&X&X&X&X&X&X&X&X&X&X&X&X&X&X&X&X&X.XOX#X).:.e r u z | f.G.`.Q.C.C.!.(.Z.@.H i u 5 X   &X&X&X&X&X&X&X&X&X&X&X&X&X&X&X&X&X&X&X&X",
"&X&X&X&X&X&X&X&X&X&X&X&X&X&X&X&X&X&X.XOX%XY.q . y K h J X.f.`.T.V.V.A.A.@.v m J K h - X &X&X&X&X&X&X&X&X&X&X&X&X&X&X&X&X&X&X&X&X",
"&X&X&X&X&X&X&X&X&X&X&X&X&X&X&X&X&X&X.XoX%XY.q . y L l h J | f.d.Y n V.@.F m i J J K i w X   &X&X&X&X&X&X&X&X&X&X&X&X&X&X&X&X&X&X",
"&X&X&X&X&X&X&X&X&X&X&X&X&X&X&X&X&X&X.XoX%XY.e X t J J C d K | O.Y b b v Z h i J J L I u %   &X&X&X&X&X&X&X&X&X&X&X&X&X&X&X&X&X&X",
"&X&X&X&X&X&X&X&X&X&X&X&X&X&X&X&X&X&X.X#X%XY.e O 8 Z K J h C J K H M M Z N i i l J L L u X   &X&X&X&X&X&X&X&X&X&X&X&X&X&X&X&X&X&X",
"&X&X&X&X&X&X&X&X&X&X&X&X&X&X&X&X&X&X.XoX%XY.e O 1 B Z K h h h i i l h i i i i J J L K u X   &X&X&X&X&X&X&X&X&X&X&X&X&X&X&X&X&X&X",
"&X&X&X&X&X&X&X&X&X&X&X&X&X&X&X&X&X&X.X#X$XY.e O 1 B B Z C i h h h h h h i h i h K K L u %   &X&X&X&X&X&X&X&X&X&X&X&X&X&X&X&X&X&X",
"&X&X&X&X&X&X&X&X&X&X&X&X&X&X&X&X&X&X.XoX%XY.q @ V U B M N h h i h h i l ) P J h J L K u X   &X&X&X&X&X&X&X&X&X&X&X&X&X&X&X&X&X&X",
"&X&X&X&X&X&X&X&X&X&X&X&X&X&X&X&X&X&X.XoX%XY.q * <.7.G M C h C i i h h ^ 9.3.K h K K P y X   &X&X&X&X&X&X&X&X&X&X&X&X&X&X&X&X&X&X",
"&X&X&X&X&X&X&X&X&X&X&X&X&X&X&X&X&X&X.XoX#X).;.x q.h.4.U C i i i i h K { q.1.g w i L P y %   &X&X&X&X&X&X&X&X&X&X&X&X&X&X&X&X&X&X",
"&X&X&X&X&X&X&X&X&X&X&X&X&X&X&X&X&X&X&X&XoX|.'.B.3.2.h.u.K u p y y J 1.q.` g & & i L P u @   &X&X&X&X&X&X&X&X&X&X&X&X&X&X&X&X&X&X",
"&X&X&X&X&X&X&X&X&X&X&X&X&X&X&X&X&X&X&X&X.X#X%X].:.J q.q.J r t t t j 1.1.j ;   @ y P L y @   &X&X&X&X&X&X&X&X&X&X&X&X&X&X&X&X&X&X",
"&X&X&X&X&X&X&X&X&X&X&X&X&X&X&X&X&X&X&X&X.XoX%X).g - z ) i 5 w w 5 r h d t - . X y L L u %   &X&X&X&X&X&X&X&X&X&X&X&X&X&X&X&X&X&X",
"&X&X&X&X&X&X&X&X&X&X&X&X&X&X&X&X&X&X&X&X.X#X%XY.q . r J i y d d d d p h h w & - h J h w X   &X&X&X&X&X&X&X&X&X&X&X&X&X&X&X&X&X&X",
"&X&X&X&X&X&X&X&X&X&X&X&X&X&X&X&X&X&X&X&X.XoX%XY.q . t K J K ] { o.{ X.X.X.Q h i J i - X &X&X&X&X&X&X&X&X&X&X&X&X&X&X&X&X&X&X&X&X",
"&X&X&X&X&X&X&X&X&X&X&X&X&X&X&X&X&X&X&X&X.XoX$X).;.r l P L / o.-.*.*.-.=.=.&./ L P y X   &X&X&X&X&X&X&X&X&X&X&X&X&X&X&X&X&X&X&X&X",
"&X&X&X&X&X&X&X&X&X&X&X&X&X&X&X&X&X&X&X&X&X&XoX.X).M.>.K J ) o.*.#.@.*.=.=.o./ L J u X   &X&X&X&X&X&X&X&X&X&X&X&X&X&X&X&X&X&X&X&X",
"&X&X&X&X&X&X&X&X&X&X&X&X&X&X&X&X&X&X&X&X&X&X.XoX%X}.2.J J / O.$.v v [ =.=.O.X.>.>.z %   &X&X&X&X&X&X&X&X&X&X&X&X&X&X&X&X&X&X&X&X",
"&X&X&X&X&X&X&X&X&X&X&X&X&X&X&X&X&X&X&X&X&X&X.XOX%X}.2.l J L X.Q : : Q =.4.5.h.c.N.,.=   &X&X&X&X&X&X&X&X&X&X&X&X&X&X&X&X&X&X&X&X",
"&X&X&X&X&X&X&X&X&X&X&X&X&X&X&X&X&X&X&X&X&X&X.XOX$X Xm.2.3.>./ y X @ 9 Q o.5.l.c.g.,.=   &X&X&X&X&X&X&X&X&X&X&X&X&X&X&X&X&X&X&X&X",
"&X&X&X&X&X&X&X&X&X&X&X&X&X&X&X&X&X&X&X&X&X&X&X&XOXOX X}. XM.r . &X&X# 3 ] 5.y.+.r = &X&X&X&X&X&X&X&X&X&X&X&X&X&X&X&X&X&X&X&X&X&X",
"&X&X&X&X&X&X&X&X&X&X&X&X&X&X&X&X&X&X&X&X&X&X&X&XB.B.{..XOX{.;.q &X&X  $ ` t.t.( %   &X&X&X&X&X&X&X&X&X&X&X&X&X&X&X&X&X&X&X&X&X&X",
"&X&X&X&X&X&X&X&X&X&X&X&X&X&X&X&X&X&X&X&X&X&X&X&X2 g >.M.}.XX{.{.&X&X  * ,.l.l.;.&   &X&X&X&X&X&X&X&X&X&X&X&X&X&X&X&X&X&X&X&X&X&X",
"&X&X&X&X&X&X&X&X&X&X&X&X&X&X&X&X&X&X&X&X&X&X&X&X% q J 7.B.).Y.{.&X&X  = 1.G.G.w.s = &X&X&X&X&X&X&X&X&X&X&X&X&X&X&X&X&X&X&X&X&X&X",
"&X&X&X&X&X&X&X&X&X&X&X&X&X&X&X&X&X&X&X&X&X&X  % l >.2.7.7.>.x e &X&X  = 8.G.F.c.w._ =   &X&X&X&X&X&X&X&X&X&X&X&X&X&X&X&X&X&X&X&X",
"&X&X&X&X&X&X&X&X&X&X&X&X&X&X&X&X&X&X&X&X&X&X  % P 2.2.>.P w X   &X&X  * _ r.r.g.z.| *   &X&X&X&X&X&X&X&X&X&X&X&X&X&X&X&X&X&X&X&X",
"&X&X&X&X&X&X&X&X&X&X&X&X&X&X&X&X&X&X&X&X&X&X  X - w w 5 - #     &X&X  X 2 a a a s q X   &X&X&X&X&X&X&X&X&X&X&X&X&X&X&X&X&X&X&X&X",
"&X&X&X&X&X&X&X&X&X&X&X&X&X&X&X&X&X&X&X&X&X&X&X&X&X&X&X&X&X&X&X&X&X&X&X&X&X&X&X&X&X&X&X&X&X&X&X&X&X&X&X&X&X&X&X&X&X&X&X&X&X&X&X&X",
"&X&X&X&X&X&X&X&X&X&X&X&X&X&X&X&X&X&X&X&X&X&X&X&X&X&X&X&X&X&X&X&X&X&X&X&X&X&X&X&X&X&X&X&X&X&X&X&X&X&X&X&X&X&X&X&X&X&X&X&X&X&X&X&X",
"&X&X&X&X&X&X&X&X&X&X&X&X&X&X&X&X&X&X&X&X&X&X&X&X&X&X&X&X&X&X&X&X&X&X&X&X&X&X&X&X&X&X&X&X&X&X&X&X&X&X&X&X&X&X&X&X&X&X&X&X&X&X&X&X",
"&X&X&X&X&X&X&X&X&X&X&X&X&X&X&X&X&X&X&X&X&X&X&X&X&X&X&X&X&X&X&X&X&X&X&X&X&X&X&X&X&X&X&X&X&X&X&X&X&X&X&X&X&X&X&X&X&X&X&X&X&X&X&X&X",
"&X&X&X&X&X&X&X&X&X&X&X&X&X&X&X&X&X&X&X&X&X&X&X&X&X&X&X&X&X&X&X&X&X&X&X&X&X&X&X&X&X&X&X&X&X&X&X&X&X&X&X&X&X&X&X&X&X&X&X&X&X&X&X&X",
"&X&X&X&X&X&X&X&X&X&X&X&X&X&X&X&X&X&X&X&X&X&X&X&X&X&X&X&X&X&X&X&X&X&X&X&X&X&X&X&X&X&X&X&X&X&X&X&X&X&X&X&X&X&X&X&X&X&X&X&X&X&X&X&X",
"&X&X&X&X&X&X&X&X&X&X&X&X&X&X&X&X&X&X&X&X&X&X&X&X&X&X&X&X&X&X&X&X&X&X&X&X&X&X&X&X&X&X&X&X&X&X&X&X&X&X&X&X&X&X&X&X&X&X&X&X&X&X&X&X"
};
