/* XPM */
static char *result[] = {
/* columns rows colors chars-per-pixel */
"64 64 72 1 ",
"  c #000000",
". c #07090C",
"X c #090A0E",
"o c #0C0E13",
"O c #0F1116",
"+ c #131314",
"@ c #13151B",
"# c #16181E",
"$ c #171B21",
"% c #181D23",
"& c #1C1F29",
"* c #1E2126",
"= c #1D202B",
"- c #1E2330",
"; c #20272A",
": c #21282B",
"> c #212532",
", c #272B30",
"< c #262C3D",
"1 c #292F3F",
"2 c #292F41",
"3 c #2C3244",
"4 c #2E3749",
"5 c #333C44",
"6 c #303649",
"7 c #32384B",
"8 c #363D54",
"9 c #383F56",
"0 c #37424D",
"q c #39434D",
"w c #384057",
"e c #3E465D",
"r c #3E495E",
"t c #3F4A60",
"y c #40475F",
"u c #414E5E",
"i c #404760",
"p c #414962",
"a c #455264",
"s c #485767",
"d c #4A5962",
"f c #475269",
"g c #4A566C",
"h c #4A596A",
"j c #4E5B72",
"k c #515C73",
"l c #536276",
"z c #56667B",
"x c #57687E",
"c c #5A6C7C",
"v c #5B6C82",
"b c #5E7186",
"n c #62768C",
"m c #64798E",
"M c #687C8D",
"N c #677B91",
"B c #697D91",
"V c #69808C",
"C c #6E8493",
"Z c #708296",
"A c #708896",
"S c #72859A",
"D c #738B9B",
"F c #78929F",
"G c #778DA0",
"H c #7791A1",
"J c #7C93A5",
"K c #7F95A8",
"L c #7E98A9",
"P c #86A3B3",
"I c #89A5B5",
"U c None",
/* pixels */
"                                                                ",
"  XOOO@@O@O@@OO@@@++@@@@@OO@@@@OO@O@@OO@OO@@@Ooo+O@OoXOooOXXOX  ",
" o=367776676766777766676766776776677766777776411676422222<<<2&o ",
" o<wiiiitipipiitiiiiiiippiitiiiitipipiitiippie99ifpi8848888882O ",
" o<999889989999999999999999999899999999989999989ippp988888888<X ",
" o<998888888998988878899998888888888998988899899ippe9777484782o ",
" o<weteeeeiiteteie889iiieeteiiitiiteeteeyyyyyyyypppi8787848882o ",
" X=6tgjkkjf9itttye88iiiittiiiiiiiiiiiittiyyyypkkkjgfpitttttw3&o ",
"  X=fbmCGBf9999999999999999999999999999e9999qgMDCnvvxzzzvvvt-X  ",
"   $gNDKIGg433333333333333333333233333333332,uFIJSNmnnmnnbVj%   ",
"UU $sNSKIGg4-&=&&&**&&&&==*&==;*-&-&&&&&=&&&;yCIKSmbnnMnnnnt* UU",
"UU %smnCDNp3=@#####@###########++$@#######@@+1CIJSmblhhkgzbh$ UU",
"UU %sbhtaaw3=@##@########@#@####$#@@@$#####+@6CIJSmk5,,,:0ch% UU",
"UU %hxt8ppw3=@@#####################$@#####@+6CIJSBg,++++:sp$ UU",
"UU %hvrpmma3&#############@#########@#######@5BIKABh,+@++;04O UU",
"UU #ujwhHHg2&@########@#######@############@@6ZIJABk,+@++;74O UU",
"UU O4w8sHHg2=#@@@$######################@%@@+5APJSNg,++++,au# UU",
"UU O4rpzJHg3&###$@######@$#######@#######@%@@5VIKSNl5:;*,5ch% UU",
"UU #yvnAPGg2&####$#$####$@@$##############$@+0APPSNvla78aznh% UU",
"UUX=anmZGBa2%#@@@@@@@@@@#@@@@#@@@@#@@@@@@@@OO5ALBmvvvke9kvzp*XUU",
" o-6ujjklge2*@++@#+#@@@@+@@@@@@+@##++@@+@+@+O5VLbggfpy88etrw4-o ",
" o<eppppppsaq1005555555550555100015q500505100dFLkiiy888777889<o ",
" o<wpppptjCFDAAAAAAAAASZAAAAAAAAAAAAAAAAAAAADFLLzppy978888889<o ",
" o>277775rcVVVVVVVVVVVVMVVVVVVVVVVVVVVVVVVVVVVVcy776<<<<-<<<<-o ",
"UUoOOOOOo@**-:::::::-:::**::-:::;;-::*::-:::*:**OOOooXoXooooooUU",
"UU   .+%%%%#############%$$$####$##%#$$%####$%$#%$#*%#%*%@.   UU",
"UUUU @whhhssshhhhhhhshhhhdhhhshhdhhdhhdhhshhdhhhshhhshhhg0@ UUUU",
"UUUU %qhhhhhhhhhhhhhhhhhhhhhhhhhdhhhhhhhhhhhhhhhhhhhhhhgjw* UUUU",
"UUUUUU%%**%%%%%%%%%%%%%%**%%%%%%%%%%*%%%%%%%%%%%*%%%%%%%%$UUUUUU",
"UUUUUU                                                    UUUUUU",
"UUUUUUUUUUUUUUUUUUUUUUUUUUUUUUUUUUUUUUUUUUUUUUUUUUUUUUUUUUUUUUUU",
"UUUUUUUUUUUUUUUUUUUUUUUUUUUUUUUUUUUUUUUUUUUUUUUUUUUUUUUUUUUUUUUU",
"UUUUUUUUUUUUUUUUUUUUUUUUUUUUUUUUUUUUUUUUUUUUUUUUUUUUUUUUUUUUUUUU",
"UUUUUUUUUUUUUUUUUUUUUUUUUUUUUUUUUUUUUUUUUUUUUUUUUUUUUUUUUUUUUUUU",
"UUUUUUUUUUUUUUUUUUUUUUUUUUUUUUUUUUUUUUUUUUUUUUUUUUUUUUUUUUUUUUUU",
"UUUUUUUUUUUUUUUUUUUUUUUUUUUUUUUUUUUUUUUUUUUUUUUUUUUUUUUUUUUUUUUU",
"UUUUUUUUUUUUUUUUUUUUUUUUUUUUUUUUUUUUUUUUUUUUUUUUUUUUUUUUUUUUUUUU",
"UUUUUUUUUUUUUUUUUUUUUUUUUUUUUUUUUUUUUUUUUUUUUUUUUUUUUUUUUUUUUUUU",
"UUUUUUUUUUUUUUUUUUUUUUUUUUUUUUUUUUUUUUUUUUUUUUUUUUUUUUUUUUUUUUUU",
"UUUUUUUUUUUUUUUUUUUUUUUUUUUUUUUUUUUUUUUUUUUUUUUUUUUUUUUUUUUUUUUU",
"UUUUUUUUUUUUUUUUUUUUUUUUUUUUUUUUUUUUUUUUUUUUUUUUUUUUUUUUUUUUUUUU",
"UUUUUUUUUUUUUUUUUUUUUUUUUUUUUUUUUUUUUUUUUUUUUUUUUUUUUUUUUUUUUUUU",
"UUUUUUUUUUUUUUUUUUUUUUUUUUUUUUUUUUUUUUUUUUUUUUUUUUUUUUUUUUUUUUUU",
"UUUUUUUUUUUUUUUUUUUUUUUUUUUUUUUUUUUUUUUUUUUUUUUUUUUUUUUUUUUUUUUU",
"UUUUUUUUUUUUUUUUUUUUUUUUUUUUUUUUUUUUUUUUUUUUUUUUUUUUUUUUUUUUUUUU",
"UUUUUUUUUUUUUUUUUUUUUUUUUUUUUUUUUUUUUUUUUUUUUUUUUUUUUUUUUUUUUUUU",
"UUUUUUUUUUUUUUUUUUUUUUUUUUUUUUUUUUUUUUUUUUUUUUUUUUUUUUUUUUUUUUUU",
"UUUUUUUUUUUUUUUUUUUUUUUUUUUUUUUUUUUUUUUUUUUUUUUUUUUUUUUUUUUUUUUU",
"UUUUUUUUUUUUUUUUUUUUUUUUUUUUUUUUUUUUUUUUUUUUUUUUUUUUUUUUUUUUUUUU",
"UUUUUUUUUUUUUUUUUUUUUUUUUUUUUUUUUUUUUUUUUUUUUUUUUUUUUUUUUUUUUUUU",
"UUUUUUUUUUUUUUUUUUUUUUUUUUUUUUUUUUUUUUUUUUUUUUUUUUUUUUUUUUUUUUUU",
"UUUUUUUUUUUUUUUUUUUUUUUUUUUUUUUUUUUUUUUUUUUUUUUUUUUUUUUUUUUUUUUU",
"UUUUUUUUUUUUUUUUUUUUUUUUUUUUUUUUUUUUUUUUUUUUUUUUUUUUUUUUUUUUUUUU",
"UUUUUUUUUUUUUUUUUUUUUUUUUUUUUUUUUUUUUUUUUUUUUUUUUUUUUUUUUUUUUUUU",
"UUUUUUUUUUUUUUUUUUUUUUUUUUUUUUUUUUUUUUUUUUUUUUUUUUUUUUUUUUUUUUUU",
"UUUUUUUUUUUUUUUUUUUUUUUUUUUUUUUUUUUUUUUUUUUUUUUUUUUUUUUUUUUUUUUU",
"UUUUUUUUUUUUUUUUUUUUUUUUUUUUUUUUUUUUUUUUUUUUUUUUUUUUUUUUUUUUUUUU",
"UUUUUUUUUUUUUUUUUUUUUUUUUUUUUUUUUUUUUUUUUUUUUUUUUUUUUUUUUUUUUUUU",
"UUUUUUUUUUUUUUUUUUUUUUUUUUUUUUUUUUUUUUUUUUUUUUUUUUUUUUUUUUUUUUUU",
"UUUUUUUUUUUUUUUUUUUUUUUUUUUUUUUUUUUUUUUUUUUUUUUUUUUUUUUUUUUUUUUU",
"UUUUUUUUUUUUUUUUUUUUUUUUUUUUUUUUUUUUUUUUUUUUUUUUUUUUUUUUUUUUUUUU",
"UUUUUUUUUUUUUUUUUUUUUUUUUUUUUUUUUUUUUUUUUUUUUUUUUUUUUUUUUUUUUUUU",
"UUUUUUUUUUUUUUUUUUUUUUUUUUUUUUUUUUUUUUUUUUUUUUUUUUUUUUUUUUUUUUUU",
"UUUUUUUUUUUUUUUUUUUUUUUUUUUUUUUUUUUUUUUUUUUUUUUUUUUUUUUUUUUUUUUU"
};
