/* XPM */
static char *result[] = {
/* columns rows colors chars-per-pixel */
"64 64 152 2 ",
"   c #000000",
".  c #0F0000",
"X  c #07090C",
"o  c #090A0E",
"O  c #110000",
"+  c #0C0E13",
"@  c #0F1116",
"#  c #0C191F",
"$  c #101117",
"%  c #101218",
"&  c #1D171D",
"*  c #14191F",
"=  c #2E0000",
"-  c #320000",
";  c #3C0202",
":  c #3F0D0C",
">  c #22100F",
",  c #211115",
"<  c #21151B",
"1  c #3D1316",
"2  c #3D1419",
"3  c #071A20",
"4  c #091920",
"5  c #151C22",
"6  c #181D23",
"7  c #171F29",
"8  c #191F29",
"9  c #1B2126",
"0  c #17212B",
"q  c #1B212B",
"w  c #1E2330",
"e  c #20272A",
"r  c #21282B",
"t  c #3A2625",
"y  c #3D2F2E",
"u  c #242C31",
"i  c #262C3D",
"p  c #292F3F",
"a  c #212532",
"s  c #3B3535",
"d  c #3B3D3C",
"f  c #430F0E",
"g  c #400F13",
"h  c #4F0F13",
"j  c #500E13",
"k  c #411216",
"l  c #4E1217",
"z  c #411418",
"x  c #511216",
"c  c #6F0F13",
"v  c #710E12",
"b  c #7E0D11",
"n  c #292F40",
"m  c #262F41",
"M  c #273043",
"N  c #2A3245",
"B  c #2E3D45",
"V  c #2E3749",
"C  c #323D45",
"Z  c #303649",
"A  c #32394B",
"S  c #363D54",
"D  c #383F56",
"F  c #37424D",
"G  c #38424D",
"H  c #384057",
"J  c #3E465D",
"K  c #3E495E",
"L  c #3F4A60",
"P  c #40475F",
"I  c #414E5E",
"U  c #404760",
"Y  c #414962",
"T  c #455264",
"R  c #485767",
"E  c #475668",
"W  c #4A566C",
"Q  c #47596B",
"!  c #4A596A",
"~  c #4A5962",
"^  c #4E5B72",
"/  c #515C73",
"(  c #536276",
")  c #56667B",
"_  c #57687E",
"`  c #5A6C7C",
"'  c #9E0709",
"]  c #9C0A0C",
"[  c #830D10",
"{  c #A20606",
"}  c #A0070A",
"|  c #A10A0C",
" . c #AE080A",
".. c #B30000",
"X. c #B1080A",
"o. c #BF1515",
"O. c #C10000",
"+. c #CD0406",
"@. c #D10405",
"#. c #C11515",
"$. c #E10304",
"%. c red",
"&. c #FD1D1D",
"*. c #C22D2D",
"=. c #FF3737",
"-. c #FF3E3E",
";. c #BC4747",
":. c #BD4948",
">. c #BC7D7C",
",. c #FF4E4E",
"<. c #FA5F5F",
"1. c #FA6060",
"2. c #FF7171",
"3. c #5B6C82",
"4. c #5E7186",
"5. c #62768C",
"6. c #64798E",
"7. c #687C8D",
"8. c #677B91",
"9. c #697D91",
"0. c #69808C",
"q. c #6C8493",
"w. c #6D8996",
"e. c #708896",
"r. c #72859A",
"t. c #738B9B",
"y. c #708296",
"u. c #78929F",
"i. c #778DA0",
"p. c #7791A1",
"a. c #7C93A5",
"s. c #7F95A8",
"d. c #7E98A9",
"f. c #86A3B3",
"g. c #89A5B5",
"h. c #BFADAC",
"j. c #C19393",
"k. c #FF8585",
"l. c #FF9D9D",
"z. c #FAA4A4",
"x. c #FAA8A8",
"c. c #C0C3C3",
"v. c #C0C9C9",
"b. c #FFC2C2",
"n. c #FFC8C8",
"m. c #FFD5D5",
"M. c #FFDADA",
"N. c #FDE3E3",
"B. c #FDE9E9",
"V. c #FFF3F3",
"C. c #FFFFFF",
"Z. c None",
/* pixels */
"                                                                                                                                ",
"    o @ $ $ % % % % % % % % % % % $ % % % % % % % % % % $ $ % % % % $ % % % % % % % % % % @ + + $ % $ $ + + + + + + + o + +     ",
"  o q N Z Z A A A Z Z Z Z Z Z A Z A A Z Z Z A Z Z Z Z A Z A A Z A Z A Z A Z Z A Z Z Z Z A V p p Z A A Z m m i i i i i i n q +   ",
"  + i H U Y U U Y Y Y Y Y Y Y Y L Y Y L Y Y Y L Y L Y Y Y U Y Y Y Y Y L Y L Y Y L Y Y Y Y J D D Y Y Y Y D A S S D S S S D i +   ",
"  + i D D D S D D D D D D D D D D D D H D D D D D D D D D D D S D D D D D D D D D D D D D D S D Y Y Y U D S S S S S S S D i +   ",
"  + i D S D S S S S S D D D S D D D S A S D D D D D S S D S S S S D D D D S D S S S D D D D S D Y Y Y P S S A S A A A V S i +   ",
"  + i D J L J J J J Y P J J J J J J S S H L J J J J J J L L J U U L L D U J J L J Y J J J J J J U U U U S S Z A S V S S D i +   ",
"  o q A L W ^ ^ / ^ Y J Y Y L L Y H S D J Y Y L L Y Y U U U U U U U U U U U L L J Y Y Y Y Y / ( / ^ ^ T U P Y J L L L H V q o   ",
"    X e R 4.5.9.i.9.T D S D D D H H S D D H H H H H H H H H H H D D D D D D H D D D D D D R 7.i.r.4.4.3._ 3._ 3.3.3.3.L w X     ",
"      6 W 9.r.a.g.i.W V N N N N M N N N M M M N N N N N N N N N n N N N n V V m V m N N N Y t.g.d.t.4.6.4.6.4.4.5.4.5.Q 5       ",
"Z.Z.  * R 9.r.f.g.p.W N a 8 0 0 q q q q 0 0 0 q q 8 q q q q q q 8 8 q q 8 q q 0 8 8 8 7 6 G e.f.d.r.6.4.6.6.4.8.5.5.6.Q 7   Z.Z.",
"Z.Z.  6 R 5.5.q.t.6.T N 8 < 1 x x z < < 2 x x 2 < < k k < < k k < < z 2 < < z z < < 1 z , B w.f.a.r.6.4.( Q ( ! Q ) 4.Q 5   Z.Z.",
"Z.Z.  6 Q 3.! Y E Y H N 8 z ] +.@.| z 2 ] +.+.] 2 z | | 2 2 | | z z ] ] 2 2 | | z z ] } g B q.f.a.r.6.^ G r u u r G ) ! 6   Z.Z.",
"Z.Z.  6 Q _ L H L T H M 0 x +.%.@.] 2 l +.%.%.+.l 2 | X.c v X.] z l +.$.b c X.] 2 x @.@.j B w.f.a.r.8.^ r > f f > r Q L *   Z.Z.",
"Z.Z.  6 ! 3.L Y 6.6.T M 8 x @.$.[ 2 6 l +.%.%.+.x & 2 v X.X.c 2 6 x +.%.$. .c 2 6 x @.@.j B 0.f.d.r.8.! u f { { f 9 F V $   Z.Z.",
"Z.Z.  * K ^ H Q p.p.W M 8 k ] ] 2 3 3 2 ] +.+.] 2 4 3 2 | ] 2 # 4 z ] +.@.] 2 4 5 k | ] g V q.f.a.w.8.^ u f { { f q A V @   Z.Z.",
"Z.Z.  $ V H S E p.p.Q M 8 < 1 1 & 4 4 < 2 l l z < # # & 2 z * # * 6 1 l x z < # 5 < 1 1 & C q.f.a.r.8.W r , f f > r T I *   Z.Z.",
"Z.Z.  + V K Y ) a.p.W N q < 1 x x x x x l 2 & & k x x x l l l l j x l 1 6 < z z < < z g , B q.f.a.r.8.( G w 9 9 r G ) ! 5   Z.Z.",
"Z.Z.  * I 3.5.r.f.i.W N 8 k ] +.+.+.+.+.+.] 2 2 ] @.+.+.+.+.+.+.+.+.+.] 1 1 | | z z ] } g B q.f.s.r.8.4.( T A A R ) 4.Q 6   Z.Z.",
"Z.Z.o e T 4.7.y.i.7.T i 7 1 ' @.+.+.+.+.+.] 2 2 ' +.+.+.+.+.+.+.+.+.+.] 1 z } } z 1 ' { f B q.f.t.5.3.3.3.^ J L ^ 3.3.T q o Z.Z.",
"  + a Z Y W / / ( W J N 6 , g x j x l j h 1 , < k h j l h x j l h j j k < < g k < < g g $ d q.d.4.W W W Y P S S J L L D B w +   ",
"  + n D Y Y Y Y Y Y W Y G C C B B B B B B C A C B B B B B B B B V B B B C C C C A C C C d ~ u.a.( U U P S S A S A A S S D i +   ",
"  + n D Y Y T Y I / q.p.t.e.w.w.w.w.w.w.w.w.e.e.w.w.w.w.w.w.w.w.w.w.w.w.e.e.w.w.e.e.w.w.w.u.f.a.) U U P S S S S D S S S D n +   ",
"  + a N Z A A Z Z P ` 0.0.0.0.0.0.0.0.0.0.0.0.7.0.0.0.0.0.0.0.0.0.0.0.0.0.0.0.0.0.0.0.7.0.0.0.` P Z A Z i i a i m w i i i q +   ",
"Z.Z.+ + $ $ $ @ o % 9 r r r r r r r r r r r r r r r r r r r r r r r r r r r r r r r r r r r r 9 % @ @ @ + o o + + + @ o @ + Z.Z.",
"Z.Z.      X % 9 * 6 * * * * * * * * * * * * * * * * * * * * * * * 5 * * * * * * * * * * * * * * * * * 6 * 6 6 6 5 % X       Z.Z.",
"Z.Z.Z.Z.  % H ! ! ! ! ! R R R Q ! R R ! ! ! R ! ! ! ! R R ! R ! W ! Q R ! ! ! R ! ! ! ! R R R ! ! ! ! ! ! ! ! ! ^ F %   Z.Z.Z.Z.",
"Z.Z.Z.Z.  6 G ! ! ! ! ! Q Q Q Q R R R Q Q Q ! ! Q Q Q ! Q Q ! R R E Q Q Q Q ! ! Q ! ! Q Q Q R ! R ! Q Q Q W ! ! Q H 6   Z.Z.Z.Z.",
"Z.Z.Z.Z.Z.Z.6 6 9 9 9 5 5 # * * * * * * 4 9 7 6 9 5 9 4 6 * % * % * * * 5 0 # 9 9 6 9 4 * * % * * * * * * 5 5 6 6 5 Z.Z.Z.Z.Z.Z.",
"Z.Z.Z.Z.Z.Z.      O - ; 1 t s d d d d y : = . . = ; ; ; 1 t s d d s t 2 ; ; - = . . = : y G d s d s t 1 f - O       Z.Z.Z.Z.Z.Z.",
"Z.Z.Z.Z.Z.Z.Z.Z.Z.Z...#.:.>.h.v.c.c.v.j.*...Z.Z.....O.#.;.>.h.c.c.h.>.:.o.O.O...Z.Z...*.j.v.c.c.v.h.>.:.#...Z.Z.Z.Z.Z.Z.Z.Z.Z.Z.",
"Z.Z.Z.Z.Z.Z.Z.Z.Z.Z.%.&.,.k.n.V.C.V.M.l.=.%.Z.Z.%.%.%.&.1.x.B.C.C.B.x.1.&.%.%.%.Z.Z.%.=.l.M.C.C.V.n.k.,.&.%.Z.Z.Z.Z.Z.Z.Z.Z.Z.Z.",
"Z.Z.Z.Z.Z.Z.Z.Z.Z.Z.Z.Z.&.=.k.b.V.m.2.=.Z.Z.Z.Z.%.%.%.&.1.z.N.C.C.N.z.1.&.%.%.%.Z.Z.Z.Z.=.2.N.V.b.k.-.&.Z.Z.Z.Z.Z.Z.Z.Z.Z.Z.Z.Z.",
"Z.Z.Z.Z.Z.Z.Z.Z.Z.Z.Z.Z.%.&.<.z.B.b.=.%.Z.Z.Z.Z.%.%.%.&.1.z.N.C.C.N.z.1.&.%.%.%.Z.Z.Z.Z.%.=.x.B.x.<.&.%.Z.Z.Z.Z.Z.Z.Z.Z.Z.Z.Z.Z.",
"Z.Z.Z.Z.Z.Z.Z.Z.Z.Z.Z.Z.%.&.<.z.B.b.=.%.Z.Z.Z.Z.%.%.%.&.1.z.N.C.C.N.z.1.&.%.%.%.Z.Z.Z.Z.%.-.b.B.z.<.&.%.Z.Z.Z.Z.Z.Z.Z.Z.Z.Z.Z.Z.",
"Z.Z.Z.Z.Z.Z.Z.Z.Z.Z.Z.Z.%.&.<.x.B.b.,.%.Z.Z.Z.Z.%.%.%.&.1.z.N.C.C.N.z.1.&.%.%.%.Z.Z.Z.Z.%.-.b.B.z.<.&.%.Z.Z.Z.Z.Z.Z.Z.Z.Z.Z.Z.Z.",
"Z.Z.Z.Z.Z.Z.Z.Z.Z.Z.Z.Z.%.&.<.x.B.b.-.%.Z.Z.Z.Z.%.%.%.&.1.z.N.C.C.N.z.1.&.%.%.%.Z.Z.Z.Z.%.=.b.B.x.1.&.%.Z.Z.Z.Z.Z.Z.Z.Z.Z.Z.Z.Z.",
"Z.Z.Z.Z.Z.Z.Z.Z.Z.Z.Z.Z.%.&.<.x.B.b.-.%.Z.Z.Z.Z.%.%.%.&.1.z.N.C.C.N.z.1.&.%.%.%.Z.Z.Z.Z.%.,.b.B.x.1.&.%.Z.Z.Z.Z.Z.Z.Z.Z.Z.Z.Z.Z.",
"Z.Z.Z.Z.Z.Z.Z.Z.Z.Z.Z.Z.%.&.<.x.B.b.-.%.Z.Z.Z.Z.%.%.%.&.1.z.N.C.C.N.z.1.&.%.%.%.Z.Z.Z.Z.%.-.b.B.x.<.&.%.Z.Z.Z.Z.Z.Z.Z.Z.Z.Z.Z.Z.",
"Z.Z.Z.Z.Z.Z.Z.Z.Z.Z.Z.Z.%.&.<.x.B.b.-.%.Z.Z.Z.Z.%.%.%.&.1.z.N.C.C.N.x.1.&.%.%.%.Z.Z.Z.Z.%.-.b.B.x.<.&.%.Z.Z.Z.Z.Z.Z.Z.Z.Z.Z.Z.Z.",
"Z.Z.Z.Z.Z.Z.Z.Z.Z.Z.Z.Z.%.&.<.x.B.b.,.%.Z.Z.Z.Z.%.%.%.&.1.z.N.C.C.N.z.1.&.%.%.%.Z.Z.Z.Z.%.-.b.B.x.<.&.%.Z.Z.Z.Z.Z.Z.Z.Z.Z.Z.Z.Z.",
"Z.Z.Z.Z.Z.Z.Z.Z.Z.Z.Z.Z.%.&.<.x.B.b.-.%.Z.Z.Z.Z.%.%.%.&.1.z.N.C.C.N.z.1.&.%.%.%.Z.Z.Z.Z.%.-.b.B.x.<.&.%.Z.Z.Z.Z.Z.Z.Z.Z.Z.Z.Z.Z.",
"Z.Z.Z.Z.Z.Z.Z.Z.Z.Z.Z.Z.%.&.<.x.B.b.-.%.Z.Z.Z.Z.%.%.%.&.1.z.N.C.C.N.z.1.&.%.%.%.Z.Z.Z.Z.%.-.b.B.x.<.&.%.Z.Z.Z.Z.Z.Z.Z.Z.Z.Z.Z.Z.",
"Z.Z.Z.Z.Z.Z.Z.Z.Z.Z.Z.Z.%.&.<.x.B.b.-.%.Z.Z.Z.Z.%.%.%.&.1.z.N.C.C.N.z.1.&.%.%.%.Z.Z.Z.Z.%.-.b.B.x.<.&.%.Z.Z.Z.Z.Z.Z.Z.Z.Z.Z.Z.Z.",
"Z.Z.Z.Z.Z.Z.Z.Z.Z.Z.Z.Z.%.&.<.x.B.b.-.%.Z.Z.Z.Z.%.%.%.&.<.z.N.C.C.N.z.1.&.%.%.%.Z.Z.Z.Z.%.,.b.B.x.<.&.%.Z.Z.Z.Z.Z.Z.Z.Z.Z.Z.Z.Z.",
"Z.Z.Z.Z.Z.Z.Z.Z.Z.Z.Z.Z.%.&.<.x.B.b.-.%.Z.Z.Z.Z.%.%.%.&.1.z.N.C.C.N.z.1.&.%.%.%.Z.Z.Z.Z.%.=.b.B.x.<.&.%.Z.Z.Z.Z.Z.Z.Z.Z.Z.Z.Z.Z.",
"Z.Z.Z.Z.Z.Z.Z.Z.Z.Z.Z.Z.%.&.1.x.B.b.-.%.Z.Z.Z.Z.%.%.%.&.1.z.N.C.C.N.z.1.&.%.%.%.Z.Z.Z.Z.%.-.b.B.x.<.&.%.Z.Z.Z.Z.Z.Z.Z.Z.Z.Z.Z.Z.",
"Z.Z.Z.Z.Z.Z.Z.Z.Z.Z.Z.Z.%.&.1.x.B.b.-.%.Z.Z.Z.Z.%.%.%.&.1.z.N.C.C.N.z.<.&.%.%.%.Z.Z.Z.Z.%.-.b.B.x.<.&.%.Z.Z.Z.Z.Z.Z.Z.Z.Z.Z.Z.Z.",
"Z.Z.Z.Z.Z.Z.Z.Z.Z.Z.Z.Z.%.&.<.x.B.b.,.%.Z.Z.Z.Z.%.%.%.&.1.z.N.C.C.N.z.1.&.%.%.%.Z.Z.Z.Z.%.-.b.B.x.<.&.%.Z.Z.Z.Z.Z.Z.Z.Z.Z.Z.Z.Z.",
"Z.Z.Z.Z.Z.Z.Z.Z.Z.Z.Z.Z.%.&.<.x.B.b.=.%.Z.Z.Z.Z.%.%.%.&.1.z.N.C.C.N.z.1.&.%.%.%.Z.Z.Z.Z.%.-.b.B.x.<.&.%.Z.Z.Z.Z.Z.Z.Z.Z.Z.Z.Z.Z.",
"Z.Z.Z.Z.Z.Z.Z.Z.Z.Z.Z.Z.%.&.<.x.B.b.-.%.Z.Z.Z.Z.%.%.%.&.1.z.N.C.C.N.z.1.&.%.%.%.Z.Z.Z.Z.%.-.b.B.x.<.&.%.Z.Z.Z.Z.Z.Z.Z.Z.Z.Z.Z.Z.",
"Z.Z.Z.Z.Z.Z.Z.Z.Z.Z.Z.Z.%.&.<.x.B.b.-.%.Z.Z.Z.Z.%.%.%.&.1.z.N.C.C.N.x.1.&.%.%.%.Z.Z.Z.Z.%.-.b.B.x.<.&.%.Z.Z.Z.Z.Z.Z.Z.Z.Z.Z.Z.Z.",
"Z.Z.Z.Z.Z.Z.Z.Z.Z.Z.Z.Z.%.&.<.x.B.b.-.%.Z.Z.Z.Z.%.%.%.&.1.z.N.C.C.N.z.1.&.%.%.%.Z.Z.Z.Z.%.-.b.B.x.<.&.%.Z.Z.Z.Z.Z.Z.Z.Z.Z.Z.Z.Z.",
"Z.Z.Z.Z.Z.Z.Z.Z.Z.Z.Z.Z.%.&.<.x.B.b.-.%.Z.Z.Z.Z.%.%.%.&.1.z.N.C.C.N.z.1.&.%.%.%.Z.Z.Z.Z.%.-.b.B.x.<.&.%.Z.Z.Z.Z.Z.Z.Z.Z.Z.Z.Z.Z.",
"Z.Z.Z.Z.Z.Z.Z.Z.Z.Z.Z.Z.%.&.<.x.B.b.-.%.Z.Z.Z.Z.%.%.%.&.1.z.N.C.C.N.z.1.&.%.%.%.Z.Z.Z.Z.%.-.b.B.x.<.&.%.Z.Z.Z.Z.Z.Z.Z.Z.Z.Z.Z.Z.",
"Z.Z.Z.Z.Z.Z.Z.Z.Z.Z.Z.Z.%.&.<.x.B.b.-.%.Z.Z.Z.Z.%.%.%.&.1.z.N.C.C.N.z.1.&.%.%.%.Z.Z.Z.Z.%.,.b.B.x.<.&.%.Z.Z.Z.Z.Z.Z.Z.Z.Z.Z.Z.Z.",
"Z.Z.Z.Z.Z.Z.Z.Z.Z.Z.Z.Z.%.&.<.x.B.b.,.%.Z.Z.Z.Z.%.%.%.&.<.z.N.C.C.N.z.1.&.%.%.%.Z.Z.Z.Z.%.-.b.B.x.<.&.%.Z.Z.Z.Z.Z.Z.Z.Z.Z.Z.Z.Z.",
"Z.Z.Z.Z.Z.Z.Z.Z.Z.Z.Z.Z.%.&.<.x.B.b.=.%.Z.Z.Z.Z.%.%.%.&.1.z.N.C.C.N.z.1.&.%.%.%.Z.Z.Z.Z.%.-.b.B.x.<.&.%.Z.Z.Z.Z.Z.Z.Z.Z.Z.Z.Z.Z.",
"Z.Z.Z.Z.Z.Z.Z.Z.Z.Z.Z.Z.%.&.<.x.B.b.-.%.Z.Z.Z.Z.%.%.%.&.1.z.N.C.C.N.z.1.&.%.%.%.Z.Z.Z.Z.%.,.x.B.x.<.&.%.Z.Z.Z.Z.Z.Z.Z.Z.Z.Z.Z.Z.",
"Z.Z.Z.Z.Z.Z.Z.Z.Z.Z.Z.Z.%.&.<.x.V.x.,.%.Z.Z.Z.Z.%.%.%.&.1.z.N.C.C.N.z.<.&.%.%.%.Z.Z.Z.Z.%.-.n.B.x.<.&.%.Z.Z.Z.Z.Z.Z.Z.Z.Z.Z.Z.Z.",
"Z.Z.Z.Z.Z.Z.Z.Z.Z.Z.Z.Z.%.&.<.x.B.b.-.%.Z.Z.Z.Z.%.%.%.&.1.z.N.C.C.N.z.1.&.%.%.%.Z.Z.Z.Z.%.-.b.B.x.<.&.%.Z.Z.Z.Z.Z.Z.Z.Z.Z.Z.Z.Z.",
"Z.Z.Z.Z.Z.Z.Z.Z.Z.Z.Z.Z.%.&.<.x.B.b.-.%.Z.Z.Z.Z.%.%.%.&.1.z.N.C.C.N.z.1.&.%.%.%.Z.Z.Z.Z.%.-.b.B.x.<.&.%.Z.Z.Z.Z.Z.Z.Z.Z.Z.Z.Z.Z.",
"Z.Z.Z.Z.Z.Z.Z.Z.Z.Z.Z.Z.%.&.<.x.B.b.,.%.Z.Z.Z.Z.%.%.%.&.1.z.N.C.C.N.z.1.&.%.%.%.Z.Z.Z.Z.%.-.b.B.x.<.&.%.Z.Z.Z.Z.Z.Z.Z.Z.Z.Z.Z.Z.",
"Z.Z.Z.Z.Z.Z.Z.Z.Z.Z.Z.Z.%.&.<.x.N.b.=.%.Z.Z.Z.Z.%.%.%.&.1.z.N.C.C.N.z.1.&.%.%.%.Z.Z.Z.Z.%.-.b.B.x.<.&.%.Z.Z.Z.Z.Z.Z.Z.Z.Z.Z.Z.Z."
};
