/* XPM */
static char *result[] = {
/* columns rows colors chars-per-pixel */
"64 64 71 1 ",
"  c #21303D",
". c #202F3C",
"X c #212F3D",
"o c #22313E",
"O c #23323F",
"+ c #23333F",
"@ c #243340",
"# c #243440",
"$ c #263642",
"% c #253441",
"& c #1F2D3B",
"* c #273643",
"= c #293945",
"- c #293845",
"; c #283844",
": c #2B3C47",
"> c #31424C",
", c #2D3D48",
"< c #1A2736",
"1 c #2A3A46",
"2 c #283744",
"3 c #263542",
"4 c #273743",
"5 c #2A3946",
"6 c #2F404B",
"7 c #374952",
"8 c #31424D",
"9 c #202E3C",
"0 c #172433",
"q c #1C2A38",
"w c #1C2938",
"e c #1F2E3B",
"r c #182534",
"t c #1A2836",
"y c #1D2A39",
"u c #1E2C3A",
"i c #374852",
"p c #22303E",
"a c #293844",
"s c #2E3F4A",
"d c #2C3C48",
"f c #2F3F4A",
"g c #364852",
"h c #23313E",
"j c #24323F",
"k c #2B3B47",
"l c #2F3F4B",
"z c #32434D",
"x c #384A53",
"c c #364851",
"v c #2D3D49",
"b c #30404B",
"n c #33444E",
"m c #354750",
"M c #394B54",
"N c #2E3E4A",
"B c #34454F",
"V c #2D3E49",
"C c #23313F",
"Z c #30414B",
"A c #374953",
"S c #394C54",
"D c #354650",
"F c #364751",
"G c #354751",
"H c #33444F",
"J c #2E3E49",
"K c #32424D",
"L c #2B3B46",
"P c #1D2B39",
"I c white",
/* pixels */
"                                                            .X  ",
" oO+@@@@@@@@@@@@@@@@@@@@@@@@@@@@@@@@@@@@@@@@@@@@@@@@@@@@@@+#$% &",
" O*======================================================-;:>,.<",
" +=12$$$$$$$$$$$$$$$$$$$$$$$$$$$$$$$$$$$$$$$$$$$$$$$$$$334567890",
" @=2.qqqqqqqqqqqqqqqqqqqqqqqqqqqqqqqqqqqqqqqqqqqqqqqqqqqwe467>90",
" @=$qrtqqqqqqqqqqqqqqqqqqqqqqqqqqqqqqqqqqqqqqqqqqqqqqwwyuo26i>90",
" @=3w<p333333333333333333333333333333333333333333333333as6dfg>90",
" @=;hjk6666666666666666666666666666666666666666666666llzxgsfc>90",
" O;vbnmggcccccccccccccccccccccccccccccccccccccccccccccc7Mcsfc>90",
" O;NBicccccccccccccccccccccccccccccccccccccccccccccccccccnVfc>90",
" +;dslfffffffffffffffffffffffffffffffffffffffffffffffffffV:lg>90",
" +;kkkkkkkkkkkkkkkkkkkkkkkkkkkkkkkkkkkkkkkkkkkkkkkkkkkkkkkklg>90",
" +;kkkkkkkkkkkkkkkkkkkkkkkkkkkkkkkkkkkkkkkkkkkkkkkkkkkkkkkklg>90",
" +-123333333333333333333333333333333333333333333333333333*=6g>90",
" @=2.qqqqqqqqqqqqqqqqqqqqqqqqqqqqqqqqqqqqqqqqqqqqqqqqqqww&*6i>90",
" @=$qrtqqqqqqqqqqqqqqqqqqqqqqqqqqqqqqqqqqqqqqqqqqqqqqwwyuo26i>90",
" @=3w<p333333333333333333333333333333333333333333333333as6dfg>90",
" @=;hjk6666666666666666666666666666666666666666666666llzxgsfc>90",
" O;vbnmggcccccccccccccccccccccccccccccccccccccccccccccc7Mcsfc>90",
" O;NBicccccccccccccccccccccccccccccccccccccccccccccccccccnVfc>90",
" +;dslfffffffffffffffffffffffffffffffffffffffffffffffffffV:lg>90",
" +;kkkkkkkkkkkkkkkkkkkkkkkkkkkkkkkkkkkkkkkkkkkkkkkkkkkkkkkklg>90",
" +;kkkkkkkkkkkkkkkkkkkkkkkkkkkkkkkkkkkkkkkkkkkkkkkkkkkkkkkklg>90",
" +-123333333333333333333333333333333333333333333333333333*=6g>90",
" @=2.qqqqqqqqqqqqqqqqqqqqqqqqqqqqqqqqqqqqqqqqqqqqqqqqqqww&*6i>90",
" @=$qrtqqqqqqqqqqqqqqqqqqqqqqqqqqqqqqqqqqqqqqqqqqqqqqwwyuo26i>90",
" @=3w<p333333333333333333333333333333333333333333333333as6dfg>90",
" @=;Cjk6666666666666666666666666666666666666666666666llzxisfc>90",
" O;vZnmggccccccccccccccccccccccccccccccccccccccccccccccASgsfc>90",
" O;VzDFccccccccccccccccccccccccccccccccccccccccccccccccGB>,fg>90",
" +-1;=,lffffffffffffffffffffffffffffffffffffffffffffffl,;4=6g>90",
" +-=%%=kkkkkkkkkkkkkkkkkkkkkkkkkkkkkkkkkkkkkkkkkkkkkkkk=%%-6i>90",
" +-k==kkkkkkkkkkkkkkkkkkkkkkkkkkkkkkkkkkkkkkkkkkkkkkkkkk==1lg>90",
" +-12$333333333333333333333333333333333333333333333333333456g>90",
" @=2.qqqqqqqqqqqqqqqqqqqqqqqqqqqqqqqqqqqqqqqqqqqqqqqqqqwwe*6i>90",
" @=$qrtqqqqqqqqqqqqqqqqqqqqqqqqqqqqqqqqqqqqqqqqqqqqqqwwyuo26i>90",
" @=3w<p333333333333333333333333333333333333333333333333as6dfg>90",
" @=;hjk6666666666666666666666666666666666666666666666llzxgsfc>90",
" O;vbnmggcccccccccccccccccccccccccccccccccccccccccccccc7Mcsfc>90",
" O;NBicccccccccccccccccccccccccccccccccccccccccccccccccccnVfc>90",
" +;dslfffffffffffffffffffffffffffffffffffffffffffffffffffV:lg>90",
" +;kkkkkkkkkkkkkkkkkkkkkkkkkkkkkkkkkkkkkkkkkkkkkkkkkkkkkkkklg>90",
" +;kkkkkkkkkkkkkkkkkkkkkkkkkkkkkkkkkkkkkkkkkkkkkkkkkkkkkkkklg>90",
" +-123333333333333333333333333333333333333333333333333333*=6g>90",
" @=2.qqqqqqqqqqqqqqqqqqqqqqqqqqqqqqqqqqqqqqqqqqqqqqqqqqww&*6i>90",
" @=$qrtqqqqqqqqqqqqqqqqqqqqqqqqqqqqqqqqqqqqqqqqqqqqqqwwyuo26i>90",
" @=3w<p333333333333333333333333333333333333333333333333as6dfg>90",
" @=;hjk6666666666666666666666666666666666666666666666llzxgsfc>90",
" O;vbnmggcccccccccccccccccccccccccccccccccccccccccccccc7Mcsfc>90",
" O;NBicccccccccccccccccccccccccccccccccccccccccccccccccccnVfc>90",
" +;dslfffffffffffffffffffffffffffffffffffffffffffffffffffV:lg>90",
" +;kkkkkkkkkkkkkkkkkkkkkkkkkkkkkkkkkkkkkkkkkkkkkkkkkkkkkkkklg>90",
" +;kkkkkkkkkkkkkkkkkkkkkkkkkkkkkkkkkkkkkkkkkkkkkkkkkkkkkkkklg>90",
" +-123333333333333333333333333333333333333333333333333333*=6g>90",
" @=2.qqqqqqqqqqqqqqqqqqqqqqqqqqqqqqqqqqqqqqqqqqqqqqqqqqww&*6i>90",
" @=$qrtqqqqqqqqqqqqqqqqqqqqqqqqqqqqqqqqqqqqqqqqqqqqqqwwyuo26i>90",
" @=3w<p333333333333333333333333333333333333333333333333as6dfg>90",
" @=;hjk6666666666666666666666666666666666666666666666llzxgsfc>90",
" O;vbnmggcccccccccccccccccccccccccccccccccccccccccccccc7Mcsfc>90",
" O;sB7iccccccccccccccccccccccccccccccccccccccccccccccccgcHJ6i890",
" +=vf6666666666666666666666666666666666666666666666666666Nd67K90",
" o%33333333333333333333333333333333333333333333333333333333=fLu0",
" .uqqqqqqqqqqqqqqqqqqqqqqqqqqqqqqqqqqqqqqqqqqqqqqqqqqqqqqqqP&u<r",
" &<00000000000000000000000000000000000000000000000000000000000rr"
};
