/* XPM */
static char *result[] = {
/* columns rows colors chars-per-pixel */
"64 64 135 2 ",
"   c #0A0908",
".  c #0B0908",
"X  c #0B0A08",
"o  c #0B0A09",
"O  c #0C0B0A",
"+  c #0D0C0B",
"@  c #0D0C0C",
"#  c #0E0D0C",
"$  c #10100F",
"%  c #101010",
"&  c #111111",
"*  c #131315",
"=  c #16171A",
"-  c #16171C",
";  c #17181C",
":  c #16181D",
">  c #17191D",
",  c #17191E",
"<  c #18191F",
"1  c #181A1F",
"2  c #191A1F",
"3  c #22252E",
"4  c #252833",
"5  c #242935",
"6  c #272B37",
"7  c #282B37",
"8  c #282C37",
"9  c #282C38",
"0  c #282C39",
"q  c #292D39",
"w  c #292E3C",
"e  c #292E3D",
"r  c #2A2E3D",
"t  c #2A2F3D",
"y  c #2A2F3E",
"u  c #2A3033",
"i  c #2A3133",
"p  c #2B3134",
"a  c #2B3234",
"s  c #2B3235",
"d  c #2D3437",
"f  c #2E3538",
"g  c #2F373A",
"h  c #2F373B",
"j  c #2B303E",
"k  c #2B303F",
"l  c #2B313F",
"z  c #2F363E",
"x  c #2F373F",
"c  c #30373F",
"v  c #2A2F40",
"b  c #2A3040",
"n  c #2A3041",
"m  c #2B3142",
"M  c #2B3242",
"N  c #2C3140",
"B  c #2D3241",
"V  c #2D3342",
"C  c #2E3342",
"Z  c #2E3443",
"A  c #2E3548",
"S  c #2E3549",
"D  c #2F3549",
"F  c #2F364A",
"G  c #303840",
"H  c #323A42",
"J  c #323A43",
"K  c #303749",
"L  c #30374B",
"P  c #32394B",
"I  c #323A4B",
"U  c #30384C",
"Y  c #31384C",
"T  c #31384D",
"R  c #32394D",
"E  c #323A4C",
"W  c #32394E",
"Q  c #323A4E",
"!  c #333B4F",
"~  c #343C4E",
"^  c #353C51",
"/  c #353D51",
"(  c #353D52",
")  c #373F54",
"_  c #373F55",
"`  c #384055",
"'  c #394255",
"]  c #384056",
"[  c #394257",
"{  c #3B4457",
"}  c #3A4358",
"|  c #46535A",
" . c #46545A",
".. c #424E61",
"X. c #424E62",
"o. c #445165",
"O. c #49566B",
"+. c #4A586D",
"@. c #4B586E",
"#. c #4B596E",
"$. c #4C5A6F",
"%. c #4C5A70",
"&. c #4F5E74",
"*. c #516076",
"=. c #516177",
"-. c #526177",
";. c #5A6C75",
":. c #5A6D76",
">. c #5B6D76",
",. c #5B6E76",
"<. c #536279",
"1. c #536379",
"2. c #5F7381",
"3. c #607482",
"4. c #617583",
"5. c #627685",
"6. c #637786",
"7. c #6D848F",
"8. c #6D8490",
"9. c #6D8590",
"0. c #6F8692",
"q. c #6F8792",
"w. c #768F9B",
"e. c #77909D",
"r. c #77919D",
"t. c #7690A1",
"y. c #7791A2",
"u. c #7992A4",
"i. c #7993A4",
"p. c #7993A5",
"a. c #7B95A7",
"s. c #7C96A8",
"d. c #85A3B1",
"f. c #86A3B1",
"g. c None",
/* pixels */
"g.g.g.g.g.g.g.g.g.g.g.g.g.g.g.g.g.g.g.g.g.g.g.g.& & % $ % % % % % % % % $ % & & g.g.g.g.g.g.g.g.g.g.g.g.g.g.g.g.g.g.g.g.g.g.g.g.",
"g.g.g.g.g.g.g.g.g.g.g.g.g.g.g.g.g.g.g.g.g.g.g.g.& * ; 2 ; = = = = = = ; 2 ; * & g.g.g.g.g.g.g.g.g.g.g.g.g.g.g.g.g.g.g.g.g.g.g.g.",
"g.g.g.g.g.g.g.g.g.g.g.g.g.g.g.g.g.g.g.g.g.g.g.g.% > 5 e 4 3 3 3 3 3 3 4 e 5 > % g.g.g.g.g.g.g.g.g.g.g.g.g.g.g.g.g.g.g.g.g.g.g.g.",
"g.g.g.g.g.g.g.g.g.g.g.g.g.g.g.g.g.g.g.g.g.g.g.g.# 1 m W N 9 0 q q 0 9 N W m 1 # g.g.g.g.g.g.g.g.g.g.g.g.g.g.g.g.g.g.g.g.g.g.g.g.",
"g.g.g.g.g.g.g.g.g.g.g.g.g.g.g.g.g.g.g.g.g.g.g.g.+ , n R N 9 9 0 0 9 9 N R n , + g.g.g.g.g.g.g.g.g.g.g.g.g.g.g.g.g.g.g.g.g.g.g.g.",
"g.g.g.g.g.g.g.g.g.g.g.g.g.g.g.g.g.g.g.g.g.g.g.g.s c E U j 8 9 9 9 9 8 j U E c s g.g.g.g.g.g.g.g.g.g.g.g.g.g.g.g.g.g.g.g.g.g.g.g.",
"g.g.@ @ @ @ @ @ @ @ @ @ @ @ @ @ @ @ @ @ @ o   i ,.3.X.F t 8 9 9 9 9 8 t F X.3.,.i   o @ @ @ @ @ @ @ @ @ @ @ @ @ @ @ @ @ @ @ g.g.",
"g.g.d h g g g g g g g g g g g g g g g g g f d  .r.i.+.S w 8 9 9 9 9 8 w S +.i.r. .d f g g g g g g g g g g g g g g g g g h d g.g.",
"@ s :.q.0.9.9.9.9.9.9.9.9.9.9.9.9.9.9.9.9.8.7.w.f.t.O.S e 8 9 9 9 9 8 e S O.t.f.w.7.8.9.9.9.9.9.9.9.9.9.9.9.9.9.9.9.9.0.q.:.s @ ",
"@ s :.q.0.9.9.9.9.9.9.9.9.9.9.9.9.9.9.9.9.8.7.w.f.t.O.S e 8 9 9 9 9 8 e S O.t.f.w.7.8.9.9.9.9.9.9.9.9.9.9.9.9.9.9.9.9.0.q.:.s @ ",
"g.g.d h g g g g g g g g g g g g g g g g g f d  .r.i.+.S w 8 9 9 9 9 8 w S +.i.r. .d f g g g g g g g g g g g g g g g g g h d g.g.",
"g.g.@ @ @ @ @ @ @ @ @ @ @ @ @ @ @ @ @ @ @ o   i ,.3.X.F t 8 9 9 9 9 8 t F X.3.,.i   o @ @ @ @ @ @ @ @ @ @ @ @ @ @ @ @ @ @ @ g.g.",
"g.g.g.g.g.g.g.g.g.g.g.g.g.g.g.g.g.g.g.g.g.g.g.g.s c E U j 8 9 9 9 9 8 j U E c s g.g.g.g.g.g.g.g.g.g.g.g.g.g.g.g.g.g.g.g.g.g.g.g.",
"g.g.g.g.g.g.g.g.g.g.g.g.g.g.g.g.g.g.g.g.g.g.g.g.X - v T k 8 9 9 9 9 8 k T v - X g.g.g.g.g.g.g.g.g.g.g.g.g.g.g.g.g.g.g.g.g.g.g.g.",
"g.g.g.g.g.g.g.g.g.g.g.g.g.g.g.g.g.g.g.g.g.g.g.g.X - v T k 8 9 9 9 9 8 k T v - X g.g.g.g.g.g.g.g.g.g.g.g.g.g.g.g.g.g.g.g.g.g.g.g.",
"g.g.g.g.g.g.g.g.g.g.g.g.g.g.g.g.g.g.g.g.g.g.g.g.s x E L j 8 9 9 9 9 8 j L E x s g.g.g.g.g.g.g.g.g.g.g.g.g.g.g.g.g.g.g.g.g.g.g.g.",
"g.g.@ @ @ @ @ @ @ @ @ @ @ @ @ @ @ @ @ @ @ o   i ,.3.X.D r 8 9 9 9 9 8 r D X.3.,.i   o @ @ @ @ @ @ @ @ @ @ @ @ @ @ @ @ @ @ @ g.g.",
"g.g.d h g g g g g g g g g g g g g g g g g f d  .r.p.%.L t 8 9 9 9 9 8 t L %.p.r. .d f g g g g g g g g g g g g g g g g g h d g.g.",
"@ s :.q.0.9.9.9.9.9.9.9.9.9.9.9.9.9.9.9.9.8.7.w.d.u.&./ l 7 8 9 9 8 7 l / &.u.d.w.7.8.9.9.9.9.9.9.9.9.9.9.9.9.9.9.9.9.0.q.:.s @ ",
"@ s :.q.0.9.9.9.9.9.9.9.9.9.9.9.9.9.9.9.9.8.7.w.d.p.-._ N 6 8 9 9 8 6 N _ -.p.d.w.7.8.9.9.9.9.9.9.9.9.9.9.9.9.9.9.9.9.0.q.:.s @ ",
"g.g.d h g g g g g g g g g g g g g g g g g f d | e.s.1._ N 6 8 9 9 8 6 N _ 1.s.e.| d f g g g g g g g g g g g g g g g g g h d g.g.",
"g.g.@ @ @ @ @ @ @ @ @ @ @ @ @ @ @ @ @ @ @ o   u >.5.O.( N 7 8 9 9 8 7 N ( O.5.>.u   o @ @ @ @ @ @ @ @ @ @ @ @ @ @ @ @ @ @ @ g.g.",
"g.g.g.g.g.g.g.g.g.g.g.g.g.g.g.g.g.g.g.g.g.g.g.g.a G ~ Q k 8 9 9 9 9 8 k Q ~ G a g.g.g.g.g.g.g.g.g.g.g.g.g.g.g.g.g.g.g.g.g.g.g.g.",
"g.g.g.g.g.g.g.g.g.g.g.g.g.g.g.g.g.g.g.g.g.g.g.g.X - M ! N 8 9 9 9 9 8 N ! M - X g.g.g.g.g.g.g.g.g.g.g.g.g.g.g.g.g.g.g.g.g.g.g.g.",
"g.g.g.g.g.g.g.g.g.g.g.g.g.g.g.g.g.g.g.g.g.g.g.g.. < K ] V 7 8 9 9 8 7 V ] K < . g.g.g.g.g.g.g.g.g.g.g.g.g.g.g.g.g.g.g.g.g.g.g.g.",
"g.g.g.g.g.g.g.g.g.g.g.g.g.g.g.g.g.g.g.g.g.g.g.g.a H ' _ B 7 8 9 9 8 7 B _ ' H a g.g.g.g.g.g.g.g.g.g.g.g.g.g.g.g.g.g.g.g.g.g.g.g.",
"g.g.@ @ @ @ @ @ @ @ @ @ @ @ @ @ @ @ @ @ @ o   i >.4.o.Y y 8 9 9 9 9 8 y Y o.4.>.i   o @ @ @ @ @ @ @ @ @ @ @ @ @ @ @ @ @ @ @ g.g.",
"g.g.d h g g g g g g g g g g g g g g g g g f d  .r.p.$.L t 8 9 9 9 9 8 t L $.p.r. .d f g g g g g g g g g g g g g g g g g h d g.g.",
"@ s :.q.0.9.9.9.9.9.9.9.9.9.9.9.9.9.9.9.9.8.7.w.d.u.&.^ k 7 8 9 9 8 7 k ^ &.u.d.w.7.8.9.9.9.9.9.9.9.9.9.9.9.9.9.9.9.9.0.q.:.s @ ",
"@ s :.q.0.9.9.9.9.9.9.9.9.9.9.9.9.9.9.9.9.8.7.w.d.p.-._ N 6 8 9 9 8 6 N _ -.p.d.w.7.8.9.9.9.9.9.9.9.9.9.9.9.9.9.9.9.9.0.q.:.s @ ",
"g.g.d h g g g g g g g g g g g g g g g g g f d | e.s.<.) N 6 8 9 9 8 6 N ) <.s.e.| d f g g g g g g g g g g g g g g g g g h d g.g.",
"g.g.@ @ @ @ @ @ @ @ @ @ @ @ @ @ @ @ @ @ @ o   u >.6.@.` B 6 8 9 9 8 6 B ` @.6.>.u   o @ @ @ @ @ @ @ @ @ @ @ @ @ @ @ @ @ @ @ g.g.",
"g.g.g.g.g.g.g.g.g.g.g.g.g.g.g.g.g.g.g.g.g.g.g.g.p J { [ C 6 8 9 9 8 6 C [ { J p g.g.g.g.g.g.g.g.g.g.g.g.g.g.g.g.g.g.g.g.g.g.g.g.",
"g.g.g.g.g.g.g.g.g.g.g.g.g.g.g.g.g.g.g.g.g.g.g.g.. 1 P } Z 6 8 9 9 8 6 Z } P 1 . g.g.g.g.g.g.g.g.g.g.g.g.g.g.g.g.g.g.g.g.g.g.g.g.",
"g.g.g.g.g.g.g.g.g.g.g.g.g.g.g.g.g.g.g.g.g.g.g.g.. 1 P } Z 6 8 9 9 8 6 Z } P 1 . g.g.g.g.g.g.g.g.g.g.g.g.g.g.g.g.g.g.g.g.g.g.g.g.",
"g.g.g.g.g.g.g.g.g.g.g.g.g.g.g.g.g.g.g.g.g.g.g.g.p J { [ C 6 8 9 9 8 6 C [ { J p g.g.g.g.g.g.g.g.g.g.g.g.g.g.g.g.g.g.g.g.g.g.g.g.",
"g.g.@ @ @ @ @ @ @ @ @ @ @ @ @ @ @ @ @ @ @ o   u >.6.@.` B 6 8 9 9 8 6 B ` @.6.>.u   o @ @ @ @ @ @ @ @ @ @ @ @ @ @ @ @ @ @ @ g.g.",
"g.g.d h g g g g g g g g g g g g g g g g g f d | e.s.<.) N 6 8 9 9 8 6 N ) <.s.e.| d f g g g g g g g g g g g g g g g g g h d g.g.",
"@ s :.q.0.9.9.9.9.9.9.9.9.9.9.9.9.9.9.9.9.8.7.w.d.p.=.) N 6 8 9 9 8 6 N ) =.p.d.w.7.8.9.9.9.9.9.9.9.9.9.9.9.9.9.9.9.9.0.q.:.s @ ",
"@ s :.q.0.9.9.9.9.9.9.9.9.9.9.9.9.9.9.9.9.8.7.w.d.p.=.) N 6 8 9 9 8 6 N ) =.p.d.w.7.8.9.9.9.9.9.9.9.9.9.9.9.9.9.9.9.9.0.q.:.s @ ",
"g.g.d h g g g g g g g g g g g g g g g g g f d | e.s.<.) N 6 8 9 9 8 6 N ) <.s.e.| d f g g g g g g g g g g g g g g g g g h d g.g.",
"g.g.@ @ @ @ @ @ @ @ @ @ @ @ @ @ @ @ @ @ @ o   u >.6.@.` B 6 8 9 9 8 6 B ` @.6.>.u   o @ @ @ @ @ @ @ @ @ @ @ @ @ @ @ @ @ @ @ g.g.",
"g.g.g.g.g.g.g.g.g.g.g.g.g.g.g.g.g.g.g.g.g.g.g.g.p J { [ C 6 8 9 9 8 6 C [ { J p g.g.g.g.g.g.g.g.g.g.g.g.g.g.g.g.g.g.g.g.g.g.g.g.",
"g.g.g.g.g.g.g.g.g.g.g.g.g.g.g.g.g.g.g.g.g.g.g.g.. 1 P } Z 6 8 9 9 8 6 Z } P 1 . g.g.g.g.g.g.g.g.g.g.g.g.g.g.g.g.g.g.g.g.g.g.g.g.",
"g.g.g.g.g.g.g.g.g.g.g.g.g.g.g.g.g.g.g.g.g.g.g.g.. 1 P } Z 6 8 9 9 8 6 Z } P 1 . g.g.g.g.g.g.g.g.g.g.g.g.g.g.g.g.g.g.g.g.g.g.g.g.",
"g.g.g.g.g.g.g.g.g.g.g.g.g.g.g.g.g.g.g.g.g.g.g.g.p J { [ C 6 8 9 9 8 6 C [ { J p g.g.g.g.g.g.g.g.g.g.g.g.g.g.g.g.g.g.g.g.g.g.g.g.",
"g.g.@ @ @ @ @ @ @ @ @ @ @ @ @ @ @ @ @ @ @ o   u >.6.@.` B 6 8 9 9 8 6 B ` @.6.>.u   o @ @ @ @ @ @ @ @ @ @ @ @ @ @ @ @ @ @ @ g.g.",
"g.g.d h g g g g g g g g g g g g g g g g g f d | e.s.<.) N 6 8 9 9 8 6 N ) <.s.e.| d f g g g g g g g g g g g g g g g g g h d g.g.",
"@ s :.q.0.9.9.9.9.9.9.9.9.9.9.9.9.9.9.9.9.8.7.w.d.p.=.) N 6 8 9 9 8 6 N ) =.p.d.w.7.8.9.9.9.9.9.9.9.9.9.9.9.9.9.9.9.9.0.q.:.s @ ",
"@ s :.q.0.9.9.9.9.9.9.9.9.9.9.9.9.9.9.9.9.8.7.w.d.p.=.) N 6 8 9 9 8 6 N ) =.p.d.w.7.8.9.9.9.9.9.9.9.9.9.9.9.9.9.9.9.9.0.q.:.s @ ",
"g.g.d h g g g g g g g g g g g g g g g g g f d | e.s.<.) N 6 8 9 9 8 6 N ) <.s.e.| d f g g g g g g g g g g g g g g g g g h d g.g.",
"g.g.@ @ @ @ @ @ @ @ @ @ @ @ @ @ @ @ @ @ @ o   u >.6.@.` B 6 8 9 9 8 6 B ` @.6.>.u   o @ @ @ @ @ @ @ @ @ @ @ @ @ @ @ @ @ @ @ g.g.",
"g.g.g.g.g.g.g.g.g.g.g.g.g.g.g.g.g.g.g.g.g.g.g.g.p J { [ C 6 8 9 9 8 6 C [ { J p g.g.g.g.g.g.g.g.g.g.g.g.g.g.g.g.g.g.g.g.g.g.g.g.",
"g.g.g.g.g.g.g.g.g.g.g.g.g.g.g.g.g.g.g.g.g.g.g.g.. 1 P } Z 6 8 9 9 8 6 Z } P 1 . g.g.g.g.g.g.g.g.g.g.g.g.g.g.g.g.g.g.g.g.g.g.g.g.",
"g.g.g.g.g.g.g.g.g.g.g.g.g.g.g.g.g.g.g.g.g.g.g.g.. 1 P } Z 6 8 9 9 8 6 Z } P 1 . g.g.g.g.g.g.g.g.g.g.g.g.g.g.g.g.g.g.g.g.g.g.g.g.",
"g.g.g.g.g.g.g.g.g.g.g.g.g.g.g.g.g.g.g.g.g.g.g.g.p J { [ C 6 8 9 9 8 6 C [ { J p g.g.g.g.g.g.g.g.g.g.g.g.g.g.g.g.g.g.g.g.g.g.g.g.",
"g.g.@ @ @ @ @ @ @ @ @ @ @ @ @ @ @ @ @ @ @ o   u >.6.#.] B 6 8 9 9 8 6 B ] #.6.>.u   o @ @ @ @ @ @ @ @ @ @ @ @ @ @ @ @ @ @ @ g.g.",
"g.g.d h g g g g g g g g g g g g g g g g g f d  .e.a.*.^ k 7 8 9 9 8 7 k ^ *.a.e. .d f g g g g g g g g g g g g g g g g g h d g.g.",
"@ s :.q.0.9.9.9.9.9.9.9.9.9.9.9.9.9.9.9.9.8.7.w.f.y.#.L t 8 9 9 9 9 8 t L #.y.f.w.7.8.9.9.9.9.9.9.9.9.9.9.9.9.9.9.9.9.0.q.:.s @ ",
"@ s :.q.0.9.9.9.9.9.9.9.9.9.9.9.9.9.9.9.9.8.7.w.f.t.O.A w 8 9 9 9 9 8 w A O.t.f.w.7.8.9.9.9.9.9.9.9.9.9.9.9.9.9.9.9.9.0.q.:.s @ ",
"g.g.d h g g g g g g g g g g g g g g g g g f d  .r.i.+.A w 8 9 9 9 9 8 w A +.i.r. .d f g g g g g g g g g g g g g g g g g h d g.g.",
"g.g.@ @ @ @ @ @ @ @ @ @ @ @ @ @ @ @ @ @ @ o   i ;.2...F t 8 9 9 9 9 8 t F ..2.;.i   o @ @ @ @ @ @ @ @ @ @ @ @ @ @ @ @ @ @ @ g.g.",
"g.g.g.g.g.g.g.g.g.g.g.g.g.g.g.g.g.g.g.g.g.g.g.g.p z I U j 8 9 9 9 9 8 j U I z p g.g.g.g.g.g.g.g.g.g.g.g.g.g.g.g.g.g.g.g.g.g.g.g.",
"g.g.g.g.g.g.g.g.g.g.g.g.g.g.g.g.g.g.g.g.g.g.g.g.O : b T k 8 9 9 9 9 8 k T b : O g.g.g.g.g.g.g.g.g.g.g.g.g.g.g.g.g.g.g.g.g.g.g.g."
};
